<svg width="32" height="32" viewBox="0 0 32 32" fill="none" xmlns="http://www.w3.org/2000/svg">
<path d="M12.0802 2.5733C9.56016 2.55996 7.10683 4.98663 8.22683 7.99996H4.00016C3.29292 7.99996 2.61464 8.28092 2.11454 8.78101C1.61445 9.28111 1.3335 9.95939 1.3335 10.6666V13.3333C1.3335 13.6869 1.47397 14.0261 1.72402 14.2761C1.97407 14.5262 2.31321 14.6666 2.66683 14.6666H14.6668V10.6666H17.3335V14.6666H29.3335C29.6871 14.6666 30.0263 14.5262 30.2763 14.2761C30.5264 14.0261 30.6668 13.6869 30.6668 13.3333V10.6666C30.6668 9.95939 30.3859 9.28111 29.8858 8.78101C29.3857 8.28092 28.7074 7.99996 28.0002 7.99996H23.7735C25.3335 3.63996 19.4668 0.559964 16.7602 4.31996L16.0002 5.3333L15.2402 4.2933C14.4002 3.10663 13.2402 2.58663 12.0802 2.5733M12.0002 5.3333C13.1868 5.3333 13.7868 6.7733 12.9468 7.6133C12.1068 8.4533 10.6668 7.8533 10.6668 6.66663C10.6668 6.31301 10.8073 5.97387 11.0574 5.72382C11.3074 5.47377 11.6465 5.3333 12.0002 5.3333M20.0002 5.3333C21.1868 5.3333 21.7868 6.7733 20.9468 7.6133C20.1068 8.4533 18.6668 7.8533 18.6668 6.66663C18.6668 6.31301 18.8073 5.97387 19.0574 5.72382C19.3074 5.47377 19.6465 5.3333 20.0002 5.3333M2.66683 16V26.6666C2.66683 27.3739 2.94778 28.0522 3.44788 28.5522C3.94797 29.0523 4.62625 29.3333 5.3335 29.3333H26.6668C27.3741 29.3333 28.0524 29.0523 28.5524 28.5522C29.0525 28.0522 29.3335 27.3739 29.3335 26.6666V16H17.3335V26.6666H14.6668V16H2.66683Z" fill="white"/>
</svg>
