<svg width="62" height="61" viewBox="0 0 62 61" fill="none" xmlns="http://www.w3.org/2000/svg">
<rect width="62" height="61" rx="30.5" fill="black" fill-opacity="0.5"/>
<path d="M47 30.5C47 30.0889 46.8367 29.6947 46.546 29.404C46.2553 29.1133 45.8611 28.95 45.45 28.95C45.0389 28.95 44.6447 29.1133 44.354 29.404C44.0633 29.6947 43.9 30.0889 43.9 30.5H47ZM31.5 18.1C31.9111 18.1 32.3053 17.9367 32.596 17.646C32.8867 17.3553 33.05 16.9611 33.05 16.55C33.05 16.1389 32.8867 15.7447 32.596 15.454C32.3053 15.1633 31.9111 15 31.5 15V18.1ZM43.125 42.9H19.875V46H43.125V42.9ZM19.1 42.125V18.875H16V42.125H19.1ZM43.9 30.5V42.125H47V30.5H43.9ZM19.875 18.1H31.5V15H19.875V18.1ZM19.875 42.9C19.6695 42.9 19.4723 42.8183 19.327 42.673C19.1817 42.5277 19.1 42.3305 19.1 42.125H16C16 43.1527 16.4083 44.1383 17.135 44.865C17.8617 45.5917 18.8473 46 19.875 46V42.9ZM43.125 46C44.1527 46 45.1383 45.5917 45.865 44.865C46.5917 44.1383 47 43.1527 47 42.125H43.9C43.9 42.3305 43.8183 42.5277 43.673 42.673C43.5277 42.8183 43.3305 42.9 43.125 42.9V46ZM19.1 18.875C19.1 18.6695 19.1817 18.4723 19.327 18.327C19.4723 18.1817 19.6695 18.1 19.875 18.1V15C18.8473 15 17.8617 15.4083 17.135 16.135C16.4083 16.8617 16 17.8473 16 18.875H19.1Z" fill="white"/>
<path d="M18 39.2333L26.0198 31.7185C26.2901 31.4652 26.6418 31.322 27.0084 31.3157C27.375 31.3095 27.7311 31.4408 28.0095 31.6847L37.5 40M34.5 36.1667L38.0797 32.5074C38.3351 32.2462 38.674 32.088 39.0343 32.0618C39.3946 32.0356 39.7521 32.1432 40.041 32.3648L45 36.1667M36 21.6H45M40.5 17V26.2" stroke="white" stroke-width="4" stroke-linecap="round" stroke-linejoin="round"/>
</svg>
