<svg width="37" height="37" viewBox="0 0 37 37" fill="none" xmlns="http://www.w3.org/2000/svg">
<path d="M18.4998 6.1665C20.1353 6.1665 21.7039 6.8162 22.8603 7.97268C24.0168 9.12915 24.6665 10.6977 24.6665 12.3332C24.6665 13.9687 24.0168 15.5372 22.8603 16.6937C21.7039 17.8501 20.1353 18.4998 18.4998 18.4998C16.8643 18.4998 15.2958 17.8501 14.1393 16.6937C12.9829 15.5372 12.3332 13.9687 12.3332 12.3332C12.3332 10.6977 12.9829 9.12915 14.1393 7.97268C15.2958 6.8162 16.8643 6.1665 18.4998 6.1665M18.4998 21.5832C25.314 21.5832 30.8332 24.3428 30.8332 27.7498V30.8332H6.1665V27.7498C6.1665 24.3428 11.6857 21.5832 18.4998 21.5832Z" fill="white"/>
</svg>
