<svg width="381" height="104" viewBox="0 0 381 104" fill="none" xmlns="http://www.w3.org/2000/svg">
<rect width="381" height="104" rx="52" fill="#72A603"/>
<path d="M96.375 52.7656H99.375C99.2188 54.2031 98.8073 55.4896 98.1406 56.625C97.474 57.7604 96.5312 58.6615 95.3125 59.3281C94.0938 59.9844 92.5729 60.3125 90.75 60.3125C89.4167 60.3125 88.2031 60.0625 87.1094 59.5625C86.026 59.0625 85.0938 58.3542 84.3125 57.4375C83.5312 56.5104 82.9271 55.401 82.5 54.1094C82.0833 52.8073 81.875 51.3594 81.875 49.7656V47.5C81.875 45.9062 82.0833 44.4635 82.5 43.1719C82.9271 41.8698 83.5365 40.7552 84.3281 39.8281C85.1302 38.901 86.0938 38.1875 87.2188 37.6875C88.3438 37.1875 89.6094 36.9375 91.0156 36.9375C92.7344 36.9375 94.1875 37.2604 95.375 37.9062C96.5625 38.5521 97.4844 39.4479 98.1406 40.5938C98.8073 41.7292 99.2188 43.0469 99.375 44.5469H96.375C96.2292 43.4844 95.9583 42.5729 95.5625 41.8125C95.1667 41.0417 94.6042 40.4479 93.875 40.0312C93.1458 39.6146 92.1927 39.4062 91.0156 39.4062C90.0052 39.4062 89.1146 39.599 88.3438 39.9844C87.5833 40.3698 86.9427 40.9167 86.4219 41.625C85.9115 42.3333 85.526 43.1823 85.2656 44.1719C85.0052 45.1615 84.875 46.2604 84.875 47.4688V49.7656C84.875 50.8802 84.9896 51.9271 85.2188 52.9062C85.4583 53.8854 85.8177 54.7448 86.2969 55.4844C86.776 56.224 87.3854 56.8073 88.125 57.2344C88.8646 57.651 89.7396 57.8594 90.75 57.8594C92.0312 57.8594 93.0521 57.6562 93.8125 57.25C94.5729 56.8438 95.1458 56.2604 95.5312 55.5C95.9271 54.7396 96.2083 53.8281 96.375 52.7656ZM102.281 51.7344V51.375C102.281 50.1562 102.458 49.026 102.812 47.9844C103.167 46.9323 103.677 46.0208 104.344 45.25C105.01 44.4688 105.818 43.8646 106.766 43.4375C107.714 43 108.776 42.7812 109.953 42.7812C111.141 42.7812 112.208 43 113.156 43.4375C114.115 43.8646 114.927 44.4688 115.594 45.25C116.271 46.0208 116.786 46.9323 117.141 47.9844C117.495 49.026 117.672 50.1562 117.672 51.375V51.7344C117.672 52.9531 117.495 54.0833 117.141 55.125C116.786 56.1667 116.271 57.0781 115.594 57.8594C114.927 58.6302 114.12 59.2344 113.172 59.6719C112.234 60.099 111.172 60.3125 109.984 60.3125C108.797 60.3125 107.729 60.099 106.781 59.6719C105.833 59.2344 105.021 58.6302 104.344 57.8594C103.677 57.0781 103.167 56.1667 102.812 55.125C102.458 54.0833 102.281 52.9531 102.281 51.7344ZM105.172 51.375V51.7344C105.172 52.5781 105.271 53.375 105.469 54.125C105.667 54.8646 105.964 55.5208 106.359 56.0938C106.766 56.6667 107.271 57.1198 107.875 57.4531C108.479 57.776 109.182 57.9375 109.984 57.9375C110.776 57.9375 111.469 57.776 112.062 57.4531C112.667 57.1198 113.167 56.6667 113.562 56.0938C113.958 55.5208 114.255 54.8646 114.453 54.125C114.661 53.375 114.766 52.5781 114.766 51.7344V51.375C114.766 50.5417 114.661 49.7552 114.453 49.0156C114.255 48.2656 113.953 47.6042 113.547 47.0312C113.151 46.4479 112.651 45.9896 112.047 45.6562C111.453 45.3229 110.755 45.1562 109.953 45.1562C109.161 45.1562 108.464 45.3229 107.859 45.6562C107.266 45.9896 106.766 46.4479 106.359 47.0312C105.964 47.6042 105.667 48.2656 105.469 49.0156C105.271 49.7552 105.172 50.5417 105.172 51.375ZM124.172 46.4531V60H121.266V43.0938H124.016L124.172 46.4531ZM123.578 50.9062L122.234 50.8594C122.245 49.7031 122.396 48.6354 122.688 47.6562C122.979 46.6667 123.411 45.8073 123.984 45.0781C124.557 44.349 125.271 43.7865 126.125 43.3906C126.979 42.9844 127.969 42.7812 129.094 42.7812C129.885 42.7812 130.615 42.8958 131.281 43.125C131.948 43.3438 132.526 43.6927 133.016 44.1719C133.505 44.651 133.885 45.2656 134.156 46.0156C134.427 46.7656 134.562 47.6719 134.562 48.7344V60H131.672V48.875C131.672 47.9896 131.521 47.2812 131.219 46.75C130.927 46.2188 130.51 45.8333 129.969 45.5938C129.427 45.3438 128.792 45.2188 128.062 45.2188C127.208 45.2188 126.495 45.3698 125.922 45.6719C125.349 45.974 124.891 46.3906 124.547 46.9219C124.203 47.4531 123.953 48.0625 123.797 48.75C123.651 49.4271 123.578 50.1458 123.578 50.9062ZM134.531 49.3125L132.594 49.9062C132.604 48.9792 132.755 48.0885 133.047 47.2344C133.349 46.3802 133.781 45.6198 134.344 44.9531C134.917 44.2865 135.62 43.7604 136.453 43.375C137.286 42.9792 138.24 42.7812 139.312 42.7812C140.219 42.7812 141.021 42.901 141.719 43.1406C142.427 43.3802 143.021 43.75 143.5 44.25C143.99 44.7396 144.359 45.3698 144.609 46.1406C144.859 46.9115 144.984 47.8281 144.984 48.8906V60H142.078V48.8594C142.078 47.9115 141.927 47.1771 141.625 46.6562C141.333 46.125 140.917 45.7552 140.375 45.5469C139.844 45.3281 139.208 45.2188 138.469 45.2188C137.833 45.2188 137.271 45.3281 136.781 45.5469C136.292 45.7656 135.88 46.0677 135.547 46.4531C135.214 46.8281 134.958 47.2604 134.781 47.75C134.615 48.2396 134.531 48.7604 134.531 49.3125ZM152.234 46.4531V60H149.328V43.0938H152.078L152.234 46.4531ZM151.641 50.9062L150.297 50.8594C150.307 49.7031 150.458 48.6354 150.75 47.6562C151.042 46.6667 151.474 45.8073 152.047 45.0781C152.62 44.349 153.333 43.7865 154.188 43.3906C155.042 42.9844 156.031 42.7812 157.156 42.7812C157.948 42.7812 158.677 42.8958 159.344 43.125C160.01 43.3438 160.589 43.6927 161.078 44.1719C161.568 44.651 161.948 45.2656 162.219 46.0156C162.49 46.7656 162.625 47.6719 162.625 48.7344V60H159.734V48.875C159.734 47.9896 159.583 47.2812 159.281 46.75C158.99 46.2188 158.573 45.8333 158.031 45.5938C157.49 45.3438 156.854 45.2188 156.125 45.2188C155.271 45.2188 154.557 45.3698 153.984 45.6719C153.411 45.974 152.953 46.3906 152.609 46.9219C152.266 47.4531 152.016 48.0625 151.859 48.75C151.714 49.4271 151.641 50.1458 151.641 50.9062ZM162.594 49.3125L160.656 49.9062C160.667 48.9792 160.818 48.0885 161.109 47.2344C161.411 46.3802 161.844 45.6198 162.406 44.9531C162.979 44.2865 163.682 43.7604 164.516 43.375C165.349 42.9792 166.302 42.7812 167.375 42.7812C168.281 42.7812 169.083 42.901 169.781 43.1406C170.49 43.3802 171.083 43.75 171.562 44.25C172.052 44.7396 172.422 45.3698 172.672 46.1406C172.922 46.9115 173.047 47.8281 173.047 48.8906V60H170.141V48.8594C170.141 47.9115 169.99 47.1771 169.688 46.6562C169.396 46.125 168.979 45.7552 168.438 45.5469C167.906 45.3281 167.271 45.2188 166.531 45.2188C165.896 45.2188 165.333 45.3281 164.844 45.5469C164.354 45.7656 163.943 46.0677 163.609 46.4531C163.276 46.8281 163.021 47.2604 162.844 47.75C162.677 48.2396 162.594 48.7604 162.594 49.3125ZM184.438 60.3125C183.26 60.3125 182.193 60.1146 181.234 59.7188C180.286 59.3125 179.469 58.7448 178.781 58.0156C178.104 57.2865 177.583 56.4219 177.219 55.4219C176.854 54.4219 176.672 53.3281 176.672 52.1406V51.4844C176.672 50.1094 176.875 48.8854 177.281 47.8125C177.688 46.7292 178.24 45.8125 178.938 45.0625C179.635 44.3125 180.427 43.7448 181.312 43.3594C182.198 42.974 183.115 42.7812 184.062 42.7812C185.271 42.7812 186.312 42.9896 187.188 43.4062C188.073 43.8229 188.797 44.4062 189.359 45.1562C189.922 45.8958 190.339 46.7708 190.609 47.7812C190.88 48.7812 191.016 49.875 191.016 51.0625V52.3594H178.391V50H188.125V49.7812C188.083 49.0312 187.927 48.3021 187.656 47.5938C187.396 46.8854 186.979 46.3021 186.406 45.8438C185.833 45.3854 185.052 45.1562 184.062 45.1562C183.406 45.1562 182.802 45.2969 182.25 45.5781C181.698 45.849 181.224 46.2552 180.828 46.7969C180.432 47.3385 180.125 48 179.906 48.7812C179.688 49.5625 179.578 50.4635 179.578 51.4844V52.1406C179.578 52.9427 179.688 53.6979 179.906 54.4062C180.135 55.1042 180.464 55.7188 180.891 56.25C181.328 56.7812 181.854 57.1979 182.469 57.5C183.094 57.8021 183.802 57.9531 184.594 57.9531C185.615 57.9531 186.479 57.7448 187.188 57.3281C187.896 56.9115 188.516 56.3542 189.047 55.6562L190.797 57.0469C190.432 57.599 189.969 58.125 189.406 58.625C188.844 59.125 188.151 59.5312 187.328 59.8438C186.516 60.1562 185.552 60.3125 184.438 60.3125ZM197.281 46.7031V60H194.391V43.0938H197.125L197.281 46.7031ZM196.594 50.9062L195.391 50.8594C195.401 49.7031 195.573 48.6354 195.906 47.6562C196.24 46.6667 196.708 45.8073 197.312 45.0781C197.917 44.349 198.635 43.7865 199.469 43.3906C200.312 42.9844 201.245 42.7812 202.266 42.7812C203.099 42.7812 203.849 42.8958 204.516 43.125C205.182 43.3438 205.75 43.6979 206.219 44.1875C206.698 44.6771 207.062 45.3125 207.312 46.0938C207.562 46.8646 207.688 47.8073 207.688 48.9219V60H204.781V48.8906C204.781 48.0052 204.651 47.2969 204.391 46.7656C204.13 46.224 203.75 45.8333 203.25 45.5938C202.75 45.3438 202.135 45.2188 201.406 45.2188C200.688 45.2188 200.031 45.3698 199.438 45.6719C198.854 45.974 198.349 46.3906 197.922 46.9219C197.505 47.4531 197.177 48.0625 196.938 48.75C196.708 49.4271 196.594 50.1458 196.594 50.9062ZM218.844 57.9375C219.531 57.9375 220.167 57.7969 220.75 57.5156C221.333 57.2344 221.812 56.849 222.188 56.3594C222.562 55.8594 222.776 55.2917 222.828 54.6562H225.578C225.526 55.6562 225.188 56.5885 224.562 57.4531C223.948 58.3073 223.141 59 222.141 59.5312C221.141 60.0521 220.042 60.3125 218.844 60.3125C217.573 60.3125 216.464 60.0885 215.516 59.6406C214.578 59.1927 213.797 58.5781 213.172 57.7969C212.557 57.0156 212.094 56.1198 211.781 55.1094C211.479 54.0885 211.328 53.0104 211.328 51.875V51.2188C211.328 50.0833 211.479 49.0104 211.781 48C212.094 46.9792 212.557 46.0781 213.172 45.2969C213.797 44.5156 214.578 43.901 215.516 43.4531C216.464 43.0052 217.573 42.7812 218.844 42.7812C220.167 42.7812 221.323 43.0521 222.312 43.5938C223.302 44.125 224.078 44.8542 224.641 45.7812C225.214 46.6979 225.526 47.7396 225.578 48.9062H222.828C222.776 48.2083 222.578 47.5781 222.234 47.0156C221.901 46.4531 221.443 46.0052 220.859 45.6719C220.286 45.3281 219.615 45.1562 218.844 45.1562C217.958 45.1562 217.214 45.3333 216.609 45.6875C216.016 46.0312 215.542 46.5 215.188 47.0938C214.844 47.6771 214.594 48.3281 214.438 49.0469C214.292 49.7552 214.219 50.4792 214.219 51.2188V51.875C214.219 52.6146 214.292 53.3438 214.438 54.0625C214.583 54.7812 214.828 55.4323 215.172 56.0156C215.526 56.599 216 57.0677 216.594 57.4219C217.198 57.7656 217.948 57.9375 218.844 57.9375ZM235.844 60.3125C234.667 60.3125 233.599 60.1146 232.641 59.7188C231.693 59.3125 230.875 58.7448 230.188 58.0156C229.51 57.2865 228.99 56.4219 228.625 55.4219C228.26 54.4219 228.078 53.3281 228.078 52.1406V51.4844C228.078 50.1094 228.281 48.8854 228.688 47.8125C229.094 46.7292 229.646 45.8125 230.344 45.0625C231.042 44.3125 231.833 43.7448 232.719 43.3594C233.604 42.974 234.521 42.7812 235.469 42.7812C236.677 42.7812 237.719 42.9896 238.594 43.4062C239.479 43.8229 240.203 44.4062 240.766 45.1562C241.328 45.8958 241.745 46.7708 242.016 47.7812C242.286 48.7812 242.422 49.875 242.422 51.0625V52.3594H229.797V50H239.531V49.7812C239.49 49.0312 239.333 48.3021 239.062 47.5938C238.802 46.8854 238.385 46.3021 237.812 45.8438C237.24 45.3854 236.458 45.1562 235.469 45.1562C234.812 45.1562 234.208 45.2969 233.656 45.5781C233.104 45.849 232.63 46.2552 232.234 46.7969C231.839 47.3385 231.531 48 231.312 48.7812C231.094 49.5625 230.984 50.4635 230.984 51.4844V52.1406C230.984 52.9427 231.094 53.6979 231.312 54.4062C231.542 55.1042 231.87 55.7188 232.297 56.25C232.734 56.7812 233.26 57.1979 233.875 57.5C234.5 57.8021 235.208 57.9531 236 57.9531C237.021 57.9531 237.885 57.7448 238.594 57.3281C239.302 56.9115 239.922 56.3542 240.453 55.6562L242.203 57.0469C241.839 57.599 241.375 58.125 240.812 58.625C240.25 59.125 239.557 59.5312 238.734 59.8438C237.922 60.1562 236.958 60.3125 235.844 60.3125ZM258.391 57.625V60H246.094V57.625H258.391ZM257.938 45.1406L246.75 60H244.984V57.875L256.094 43.0938H257.938V45.1406ZM256.656 43.0938V45.4844H245.109V43.0938H256.656ZM272.75 43.0938V60H269.844V43.0938H272.75ZM269.625 38.6094C269.625 38.1406 269.766 37.7448 270.047 37.4219C270.339 37.099 270.766 36.9375 271.328 36.9375C271.88 36.9375 272.302 37.099 272.594 37.4219C272.896 37.7448 273.047 38.1406 273.047 38.6094C273.047 39.0573 272.896 39.4427 272.594 39.7656C272.302 40.0781 271.88 40.2344 271.328 40.2344C270.766 40.2344 270.339 40.0781 270.047 39.7656C269.766 39.4427 269.625 39.0573 269.625 38.6094ZM284.156 57.9375C284.844 57.9375 285.479 57.7969 286.062 57.5156C286.646 57.2344 287.125 56.849 287.5 56.3594C287.875 55.8594 288.089 55.2917 288.141 54.6562H290.891C290.839 55.6562 290.5 56.5885 289.875 57.4531C289.26 58.3073 288.453 59 287.453 59.5312C286.453 60.0521 285.354 60.3125 284.156 60.3125C282.885 60.3125 281.776 60.0885 280.828 59.6406C279.891 59.1927 279.109 58.5781 278.484 57.7969C277.87 57.0156 277.406 56.1198 277.094 55.1094C276.792 54.0885 276.641 53.0104 276.641 51.875V51.2188C276.641 50.0833 276.792 49.0104 277.094 48C277.406 46.9792 277.87 46.0781 278.484 45.2969C279.109 44.5156 279.891 43.901 280.828 43.4531C281.776 43.0052 282.885 42.7812 284.156 42.7812C285.479 42.7812 286.635 43.0521 287.625 43.5938C288.615 44.125 289.391 44.8542 289.953 45.7812C290.526 46.6979 290.839 47.7396 290.891 48.9062H288.141C288.089 48.2083 287.891 47.5781 287.547 47.0156C287.214 46.4531 286.755 46.0052 286.172 45.6719C285.599 45.3281 284.927 45.1562 284.156 45.1562C283.271 45.1562 282.526 45.3333 281.922 45.6875C281.328 46.0312 280.854 46.5 280.5 47.0938C280.156 47.6771 279.906 48.3281 279.75 49.0469C279.604 49.7552 279.531 50.4792 279.531 51.2188V51.875C279.531 52.6146 279.604 53.3438 279.75 54.0625C279.896 54.7812 280.141 55.4323 280.484 56.0156C280.839 56.599 281.312 57.0677 281.906 57.4219C282.51 57.7656 283.26 57.9375 284.156 57.9375ZM297.281 43.0938V60H294.375V43.0938H297.281ZM294.156 38.6094C294.156 38.1406 294.297 37.7448 294.578 37.4219C294.87 37.099 295.297 36.9375 295.859 36.9375C296.411 36.9375 296.833 37.099 297.125 37.4219C297.427 37.7448 297.578 38.1406 297.578 38.6094C297.578 39.0573 297.427 39.4427 297.125 39.7656C296.833 40.0781 296.411 40.2344 295.859 40.2344C295.297 40.2344 294.87 40.0781 294.578 39.7656C294.297 39.4427 294.156 39.0573 294.156 38.6094ZM313.297 37.25L313.094 53.5781H310.484L310.266 37.25H313.297ZM310.172 58.5469C310.172 58.0781 310.312 57.6823 310.594 57.3594C310.885 57.0365 311.312 56.875 311.875 56.875C312.427 56.875 312.849 57.0365 313.141 57.3594C313.443 57.6823 313.594 58.0781 313.594 58.5469C313.594 58.9948 313.443 59.3802 313.141 59.7031C312.849 60.026 312.427 60.1875 311.875 60.1875C311.312 60.1875 310.885 60.026 310.594 59.7031C310.312 59.3802 310.172 58.9948 310.172 58.5469Z" fill="white"/>
</svg>
