<svg width="321" height="58" viewBox="0 0 321 58" fill="none" xmlns="http://www.w3.org/2000/svg">
<path d="M47.32 44.352C47.96 44.096 48.4933 43.968 48.92 43.968C49.6027 43.968 50.1147 44.224 50.456 44.736C50.7973 45.248 50.968 45.9093 50.968 46.72C50.968 48 50.648 49.088 50.008 49.984C49.4107 50.88 48.3653 51.6907 46.872 52.416C44.3547 53.6107 41.0907 54.5707 37.08 55.296C33.0693 55.9787 29.1227 56.32 25.24 56.32C19.864 56.32 15.3627 55.7227 11.736 54.528C8.10933 53.2907 5.4 51.6053 3.608 49.472C1.85867 47.3387 0.984 44.928 0.984 42.24C0.984 38.5707 2.15733 35.456 4.504 32.896C6.89333 30.2933 10.392 28.416 15 27.264C12.4827 26.5387 10.5413 25.2587 9.176 23.424C7.85333 21.5893 7.192 19.5413 7.192 17.28C7.192 14.208 8.152 11.4987 10.072 9.152C12.0347 6.76266 14.6587 4.928 17.944 3.648C21.2293 2.368 24.8347 1.728 28.76 1.728C34.0507 1.728 38.0187 2.88 40.664 5.184C43.3093 7.44533 44.632 10.3893 44.632 14.016C44.632 16.5333 44.1627 18.5813 43.224 20.16C42.328 21.696 41.0267 22.464 39.32 22.464C38.1253 22.464 37.1867 22.208 36.504 21.696C35.8213 21.1413 35.48 20.3307 35.48 19.264C35.48 18.5387 35.5867 17.7493 35.8 16.896C36.0133 15.488 36.12 14.528 36.12 14.016C36.12 12.48 35.544 11.2427 34.392 10.304C33.24 9.32266 31.32 8.832 28.632 8.832C25.0053 8.832 22.104 9.6 19.928 11.136C17.752 12.672 16.664 14.7413 16.664 17.344C16.664 19.3493 17.4747 21.0133 19.096 22.336C20.76 23.616 23.448 24.32 27.16 24.448C28.0987 24.4907 28.76 24.704 29.144 25.088C29.528 25.472 29.72 26.112 29.72 27.008C29.72 29.824 28.44 31.2533 25.88 31.296C22.3387 31.3813 19.3947 31.872 17.048 32.768C14.744 33.664 13.0587 34.816 11.992 36.224C10.968 37.5893 10.456 39.0613 10.456 40.64C10.456 43.2853 11.6933 45.2907 14.168 46.656C16.6427 47.9787 20.568 48.64 25.944 48.64C29.4853 48.64 33.2187 48.2347 37.144 47.424C41.112 46.5707 44.504 45.5467 47.32 44.352ZM74.491 41.728C75.0457 41.728 75.4723 41.984 75.771 42.496C76.1123 43.008 76.283 43.712 76.283 44.608C76.283 46.3147 75.8777 47.6373 75.067 48.576C73.2323 50.8373 71.227 52.6933 69.051 54.144C66.875 55.5947 64.379 56.32 61.563 56.32C52.859 56.32 48.507 50.1973 48.507 37.952C48.507 36.0747 48.571 34.176 48.699 32.256H46.203C44.923 32.256 44.0483 32.0213 43.579 31.552C43.1523 31.0827 42.939 30.336 42.939 29.312C42.939 26.9227 43.899 25.728 45.819 25.728H49.467C50.1923 21.0347 51.3017 16.7467 52.795 12.864C54.2883 8.98133 56.0803 5.888 58.171 3.584C60.3043 1.28 62.587 0.127998 65.019 0.127998C66.811 0.127998 68.219 0.917332 69.243 2.496C70.267 4.07467 70.779 6.05866 70.779 8.448C70.779 15.0613 68.0057 20.8213 62.459 25.728H69.627C70.3097 25.728 70.8003 25.8773 71.099 26.176C71.3977 26.4747 71.547 27.0293 71.547 27.84C71.547 30.784 69.1363 32.256 64.315 32.256H56.507C56.4217 34.3893 56.379 36.0533 56.379 37.248C56.379 41.6853 56.891 44.8 57.915 46.592C58.9817 48.384 60.6457 49.28 62.907 49.28C64.7417 49.28 66.363 48.7253 67.771 47.616C69.179 46.5067 70.843 44.8427 72.763 42.624C73.275 42.0267 73.851 41.728 74.491 41.728ZM63.291 6.272C62.651 6.272 61.9257 7.08267 61.115 8.704C60.347 10.2827 59.6003 12.5013 58.875 15.36C58.1923 18.176 57.6163 21.312 57.147 24.768C59.6643 22.592 61.5417 20.16 62.779 17.472C64.059 14.7413 64.699 12.2667 64.699 10.048C64.699 7.53067 64.2297 6.272 63.291 6.272ZM99.616 41.728C100.171 41.728 100.597 41.984 100.896 42.496C101.237 43.008 101.408 43.712 101.408 44.608C101.408 46.3147 101.003 47.6373 100.192 48.576C98.6133 50.496 96.3733 52.2667 93.472 53.888C90.6133 55.5093 87.5413 56.32 84.256 56.32C79.776 56.32 76.2987 55.104 73.824 52.672C71.3493 50.24 70.112 46.912 70.112 42.688C70.112 39.744 70.7307 37.0133 71.968 34.496C73.2053 31.936 74.912 29.9093 77.088 28.416C79.3067 26.9227 81.8027 26.176 84.576 26.176C87.0507 26.176 89.0347 26.9227 90.528 28.416C92.0213 29.8667 92.768 31.8507 92.768 34.368C92.768 37.312 91.7013 39.8507 89.568 41.984C87.4773 44.0747 83.9147 45.7387 78.88 46.976C79.9467 48.9387 81.9733 49.92 84.96 49.92C86.88 49.92 89.056 49.2587 91.488 47.936C93.9627 46.5707 96.096 44.8 97.888 42.624C98.4 42.0267 98.976 41.728 99.616 41.728ZM83.488 32.448C81.9093 32.448 80.5653 33.3653 79.456 35.2C78.3893 37.0347 77.856 39.2533 77.856 41.856V41.984C80.3733 41.3867 82.3573 40.4907 83.808 39.296C85.2587 38.1013 85.984 36.7147 85.984 35.136C85.984 34.3253 85.7493 33.6853 85.28 33.216C84.8533 32.704 84.256 32.448 83.488 32.448ZM108.101 57.728C105.882 57.728 104.176 57.216 102.981 56.192C101.829 55.168 101.253 54.016 101.253 52.736C101.253 51.6267 101.658 50.6667 102.469 49.856C103.28 49.0453 104.474 48.64 106.053 48.64C106.608 48.64 107.248 48.704 107.973 48.832C108.741 48.9173 109.317 48.9813 109.701 49.024C109.658 47.9147 109.402 46.8693 108.933 45.888C108.506 44.9067 107.952 43.968 107.269 43.072C106.586 42.1333 105.946 41.3227 105.349 40.64C104.026 43.1573 102.704 45.248 101.381 46.912C100.101 48.576 98.693 50.1547 97.157 51.648C96.389 52.416 95.5783 52.8 94.725 52.8C94.0423 52.8 93.4877 52.5653 93.061 52.096C92.6343 51.584 92.421 50.9653 92.421 50.24C92.421 49.3867 92.7197 48.5973 93.317 47.872L94.149 46.848C96.4957 43.9467 98.2663 41.5573 99.461 39.68C100.229 38.4427 100.997 36.9707 101.765 35.264C102.576 33.5573 103.621 31.232 104.901 28.288C105.712 26.4107 107.397 25.472 109.957 25.472C111.152 25.472 111.984 25.5787 112.453 25.792C112.922 26.0053 113.157 26.3467 113.157 26.816C113.157 27.072 113.072 27.4773 112.901 28.032C112.73 28.5867 112.496 29.1413 112.197 29.696C111.429 31.232 111.045 32.5333 111.045 33.6C111.045 34.24 111.258 34.944 111.685 35.712C112.154 36.48 112.858 37.44 113.797 38.592C115.162 40.384 116.186 41.92 116.869 43.2C117.594 44.4373 117.957 45.8027 117.957 47.296C117.957 49.088 117.53 50.7947 116.677 52.416C115.866 53.9947 114.714 55.2747 113.221 56.256C111.728 57.2373 110.021 57.728 108.101 57.728ZM125.353 40.256C124.329 40.3413 123.497 40.0427 122.857 39.36C122.259 38.6773 121.961 37.7173 121.961 36.48C121.961 35.328 122.238 34.4747 122.793 33.92C123.39 33.3653 124.243 33.0453 125.353 32.96L138.473 31.68C139.539 31.5947 140.35 31.872 140.905 32.512C141.502 33.1093 141.801 34.0053 141.801 35.2C141.801 37.504 140.691 38.7627 138.473 38.976L125.353 40.256ZM178.877 36.544C179.005 36.5013 179.218 36.48 179.517 36.48C180.157 36.48 180.648 36.6933 180.989 37.12C181.33 37.5467 181.501 38.1227 181.501 38.848C181.501 40.1707 181.245 41.216 180.733 41.984C180.221 42.7093 179.453 43.2427 178.429 43.584C176.466 44.224 174.376 44.544 172.157 44.544C170.28 44.544 168.509 44.288 166.845 43.776C165.608 45.7813 164.242 47.8507 162.749 49.984C161.042 52.416 159.57 54.08 158.333 54.976C157.096 55.872 155.688 56.32 154.109 56.32C152.36 56.32 150.973 55.6373 149.949 54.272C148.968 52.9067 148.349 50.752 148.093 47.808C147.581 41.8347 147.325 36.608 147.325 32.128V29.888C147.368 28.48 147.752 27.4987 148.477 26.944C149.202 26.3893 150.29 26.112 151.741 26.112C152.85 26.112 153.661 26.368 154.173 26.88C154.728 27.3493 155.005 28.16 155.005 29.312C155.005 34.2187 155.304 40.5973 155.901 48.448C158.461 44.6507 160.381 41.6213 161.661 39.36C161.021 38.1227 160.701 36.6507 160.701 34.944C160.701 33.4933 161.021 32.0853 161.661 30.72C162.301 29.3547 163.176 28.2453 164.285 27.392C165.394 26.5387 166.653 26.112 168.061 26.112C169.298 26.112 170.301 26.56 171.069 27.456C171.837 28.3093 172.221 29.568 172.221 31.232C172.221 33.152 171.709 35.3493 170.685 37.824C172.306 37.7387 174.461 37.4187 177.149 36.864L178.877 36.544ZM208.587 36.352C209.142 36.352 209.568 36.6293 209.867 37.184C210.166 37.7387 210.315 38.4427 210.315 39.296C210.315 41.344 209.696 42.56 208.459 42.944C205.899 43.84 203.083 44.352 200.011 44.48C199.2 48.064 197.6 50.944 195.211 53.12C192.822 55.2533 190.112 56.32 187.083 56.32C184.523 56.32 182.326 55.7013 180.491 54.464C178.699 53.2267 177.334 51.584 176.395 49.536C175.456 47.488 174.987 45.2693 174.987 42.88C174.987 39.6373 175.606 36.7573 176.843 34.24C178.08 31.68 179.787 29.696 181.963 28.288C184.139 26.8373 186.55 26.112 189.195 26.112C192.438 26.112 195.04 27.2427 197.003 29.504C199.008 31.7227 200.182 34.4747 200.523 37.76C202.528 37.632 204.918 37.2053 207.691 36.48C208.032 36.3947 208.331 36.352 208.587 36.352ZM187.595 49.536C188.96 49.536 190.134 48.9813 191.115 47.872C192.139 46.7627 192.822 45.1627 193.163 43.072C191.84 42.176 190.816 41.0027 190.091 39.552C189.408 38.1013 189.067 36.5653 189.067 34.944C189.067 34.2613 189.131 33.5787 189.259 32.896H188.939C187.232 32.896 185.803 33.728 184.651 35.392C183.542 37.0133 182.987 39.3173 182.987 42.304C182.987 44.6507 183.435 46.4427 184.331 47.68C185.27 48.9173 186.358 49.536 187.595 49.536ZM211.35 56.32C209.43 56.32 207.851 55.4453 206.614 53.696C205.419 51.904 204.822 49.6853 204.822 47.04C204.822 43.84 205.035 40.9173 205.462 38.272C205.889 35.584 206.593 32.7467 207.574 29.76C208.001 28.48 208.598 27.5627 209.366 27.008C210.134 26.4533 211.35 26.176 213.014 26.176C213.953 26.176 214.593 26.3253 214.934 26.624C215.318 26.9227 215.51 27.3707 215.51 27.968C215.51 28.3093 215.275 29.4613 214.806 31.424C214.379 33.0027 214.038 34.432 213.782 35.712C212.929 40.192 212.502 43.1787 212.502 44.672C212.502 45.568 212.609 46.208 212.822 46.592C213.035 46.9333 213.377 47.104 213.846 47.104C214.486 47.104 215.275 46.464 216.214 45.184C217.195 43.904 218.219 41.9627 219.286 39.36C220.395 36.7573 221.462 33.5573 222.486 29.76C222.827 28.48 223.339 27.5627 224.022 27.008C224.747 26.4533 225.814 26.176 227.222 26.176C228.203 26.176 228.886 26.304 229.27 26.56C229.654 26.7733 229.846 27.2 229.846 27.84C229.846 28.9067 229.313 31.8293 228.246 36.608C227.051 42.0693 226.454 45.44 226.454 46.72C226.454 47.5307 226.625 48.1707 226.966 48.64C227.307 49.0667 227.755 49.28 228.31 49.28C229.163 49.28 230.166 48.768 231.318 47.744C232.513 46.6773 234.091 44.9707 236.054 42.624C236.566 42.0267 237.142 41.728 237.782 41.728C238.337 41.728 238.763 41.984 239.062 42.496C239.403 43.008 239.574 43.712 239.574 44.608C239.574 46.3147 239.169 47.6373 238.358 48.576C236.523 50.8373 234.539 52.6933 232.406 54.144C230.315 55.5947 227.926 56.32 225.238 56.32C223.19 56.32 221.675 55.5307 220.694 53.952C219.755 52.3733 219.286 50.1547 219.286 47.296C218.561 50.1973 217.473 52.4373 216.022 54.016C214.571 55.552 213.014 56.32 211.35 56.32ZM246.289 57.728C244.07 57.728 242.363 57.216 241.169 56.192C240.017 55.168 239.441 54.016 239.441 52.736C239.441 51.6267 239.846 50.6667 240.657 49.856C241.467 49.0453 242.662 48.64 244.241 48.64C244.795 48.64 245.435 48.704 246.161 48.832C246.929 48.9173 247.505 48.9813 247.889 49.024C247.846 47.9147 247.59 46.8693 247.121 45.888C246.694 44.9067 246.139 43.968 245.457 43.072C244.774 42.1333 244.134 41.3227 243.537 40.64C242.214 43.1573 240.891 45.248 239.569 46.912C238.289 48.576 236.881 50.1547 235.345 51.648C234.577 52.416 233.766 52.8 232.913 52.8C232.23 52.8 231.675 52.5653 231.248 52.096C230.822 51.584 230.608 50.9653 230.608 50.24C230.608 49.3867 230.907 48.5973 231.505 47.872L232.337 46.848C234.683 43.9467 236.454 41.5573 237.649 39.68C238.417 38.4427 239.185 36.9707 239.953 35.264C240.763 33.5573 241.809 31.232 243.089 28.288C243.899 26.4107 245.585 25.472 248.145 25.472C249.339 25.472 250.171 25.5787 250.641 25.792C251.11 26.0053 251.345 26.3467 251.345 26.816C251.345 27.072 251.259 27.4773 251.089 28.032C250.918 28.5867 250.683 29.1413 250.385 29.696C249.617 31.232 249.233 32.5333 249.233 33.6C249.233 34.24 249.446 34.944 249.873 35.712C250.342 36.48 251.046 37.44 251.985 38.592C253.35 40.384 254.374 41.92 255.057 43.2C255.782 44.4373 256.145 45.8027 256.145 47.296C256.145 49.088 255.718 50.7947 254.865 52.416C254.054 53.9947 252.902 55.2747 251.409 56.256C249.915 57.2373 248.209 57.728 246.289 57.728ZM280.926 56.32C279.048 56.32 277.619 55.808 276.638 54.784C275.699 53.76 275.23 52.416 275.23 50.752C275.23 48.832 275.763 47.296 276.83 46.144C277.939 44.992 279.475 44.416 281.438 44.416C283.315 44.416 284.723 44.8853 285.662 45.824C286.643 46.72 287.134 48.064 287.134 49.856C287.134 51.8187 286.579 53.3973 285.47 54.592C284.36 55.744 282.846 56.32 280.926 56.32ZM297.363 56.32C295.486 56.32 294.056 55.808 293.075 54.784C292.136 53.76 291.667 52.416 291.667 50.752C291.667 48.832 292.2 47.296 293.267 46.144C294.376 44.992 295.912 44.416 297.875 44.416C299.752 44.416 301.16 44.8853 302.099 45.824C303.08 46.72 303.571 48.064 303.571 49.856C303.571 51.8187 303.016 53.3973 301.907 54.592C300.798 55.744 299.283 56.32 297.363 56.32ZM313.801 56.32C311.923 56.32 310.494 55.808 309.513 54.784C308.574 53.76 308.105 52.416 308.105 50.752C308.105 48.832 308.638 47.296 309.705 46.144C310.814 44.992 312.35 44.416 314.312 44.416C316.19 44.416 317.598 44.8853 318.537 45.824C319.518 46.72 320.009 48.064 320.009 49.856C320.009 51.8187 319.454 53.3973 318.345 54.592C317.235 55.744 315.721 56.32 313.801 56.32Z" fill="#D93D04"/>
</svg>
