<svg width="217" height="217" viewBox="0 0 217 217" fill="none" xmlns="http://www.w3.org/2000/svg">
<g clip-path="url(#clip0_117_17)">
<path d="M217 217V204.944C217 195.353 213.19 186.153 206.407 179.371C199.624 172.588 190.425 168.778 180.833 168.778H84.3888C74.7968 168.778 65.5977 172.588 58.8151 179.371C52.0326 186.153 48.2222 195.353 48.2222 204.944V217H217Z" fill="#77B255"/>
<path d="M132.611 204.944C137.234 204.944 162.75 186.861 162.75 168.778H102.472C102.472 186.861 127.988 204.944 132.611 204.944Z" fill="#3E721D"/>
<path d="M106.33 169.007C106.33 186.162 158.892 186.861 158.892 169.007V146.409H106.33V169.007Z" fill="#EBCCB8"/>
<path d="M106.282 156.56C113.612 164.842 122.701 167.084 132.587 167.084C142.466 167.084 151.556 164.842 158.892 156.56V135.517H106.282V156.56Z" fill="#664131"/>
<path d="M151.611 19.8918C140.007 16.1365 116.192 17.119 109.368 25.9919C98.0782 26.2089 99.7479 48.355 78.5482 43.8763C74.0997 49.9282 70.9592 57.1254 69.9646 64.8289C67.2642 85.7754 71.3811 94.2083 73.527 109.953C75.9562 127.795 85.9865 133.503 94.0034 135.89C105.541 151.135 117.807 150.484 138.404 150.484C178.621 150.484 194.288 123.612 195.981 77.9092C196.464 64.9073 193.13 53.3942 186.433 43.8583C163.305 52.8396 167.066 24.8949 151.611 19.8918Z" fill="#3D2E24"/>
<path d="M178.103 79.8257C174.209 74.4369 169.23 70.0969 158.308 68.5658C162.407 70.4404 169.604 81.839 170.116 85.4255C170.629 89.012 171.141 91.9114 167.898 88.3249C154.908 73.9667 137.488 74.7081 123.473 65.9377C113.684 59.8135 110.7 53.0322 110.7 53.0322C110.7 53.0322 109.507 62.0739 94.6605 71.2904C90.3566 73.9607 85.221 79.9101 82.3758 88.6986C80.3264 95.0157 80.9653 100.646 80.9653 110.266C80.9653 138.355 104.118 161.972 132.672 161.972C161.225 161.972 184.378 138.144 184.378 110.266C184.366 92.7975 182.539 85.974 178.103 79.8257Z" fill="#EBCCB8"/>
<path d="M137.364 120.751H125.875C125.113 120.751 124.381 120.448 123.842 119.908C123.303 119.369 123 118.638 123 117.875C123 117.113 123.303 116.381 123.842 115.842C124.381 115.303 125.113 115 125.875 115H137.364C138.127 115 138.858 115.303 139.397 115.842C139.937 116.381 140.239 117.113 140.239 117.875C140.239 118.638 139.937 119.369 139.397 119.908C138.858 120.448 138.127 120.751 137.364 120.751Z" fill="#3D2E24"/>
<path d="M109.676 104.528C108.152 104.528 106.691 103.923 105.614 102.845C104.536 101.768 103.931 100.307 103.931 98.7834V93.0389C103.931 91.5154 104.536 90.0542 105.614 88.9769C106.691 87.8997 108.152 87.2944 109.676 87.2944C111.199 87.2944 112.66 87.8997 113.738 88.9769C114.815 90.0542 115.42 91.5154 115.42 93.0389V98.7834C115.42 100.307 114.815 101.768 113.738 102.845C112.66 103.923 111.199 104.528 109.676 104.528ZM155.643 104.528C154.12 104.528 152.659 103.923 151.581 102.845C150.504 101.768 149.899 100.307 149.899 98.7834V93.0389C149.899 91.5154 150.504 90.0542 151.581 88.9769C152.659 87.8997 154.12 87.2944 155.643 87.2944C157.167 87.2944 158.628 87.8997 159.705 88.9769C160.783 90.0542 161.388 91.5154 161.388 93.0389V98.7834C161.388 100.307 160.783 101.768 159.705 102.845C158.628 103.923 157.167 104.528 155.643 104.528Z" fill="black"/>
<path d="M133.419 148.627C116.818 148.627 111.719 144.377 110.869 143.515C110.493 143.158 110.191 142.731 109.98 142.257C109.769 141.783 109.654 141.273 109.64 140.754C109.613 139.708 110.003 138.693 110.724 137.934C111.445 137.174 112.438 136.732 113.485 136.705C114.532 136.678 115.547 137.068 116.306 137.789C116.619 138.012 120.652 140.725 133.419 140.725C146.68 140.725 150.514 137.801 150.55 137.771C150.914 137.41 151.347 137.125 151.823 136.934C152.298 136.743 152.808 136.648 153.32 136.657C153.833 136.665 154.339 136.776 154.808 136.983C155.278 137.19 155.701 137.488 156.053 137.861C156.784 138.628 157.184 139.65 157.168 140.709C157.153 141.767 156.722 142.777 155.969 143.521C155.113 144.377 150.019 148.627 133.419 148.627Z" fill="#3D2E24"/>
<path d="M78.3613 168.778H96.4447V217H78.3613V168.778ZM168.778 168.778H186.861V217H168.778V168.778Z" fill="#3B88C3"/>
<path d="M79.1147 210.972H186.861V217H79.1147V210.972Z" fill="#3B88C3"/>
<path d="M180.833 53.0444C180.833 61.0011 162.195 66.3056 132.611 66.3056C103.021 66.3056 84.3887 61.0011 84.3887 53.0444C84.3887 31.6639 108.5 0 116.535 0C124.576 0 129.935 10.6089 132.611 10.6089C135.287 10.6089 140.646 0 148.687 0C156.722 0 180.833 31.6639 180.833 53.0444Z" fill="#A5462A"/>
<path d="M216.644 48.2224C216.644 58.2104 195.547 84.389 132.256 84.389C68.9639 84.389 47.8667 58.2104 47.8667 48.2224C47.8667 38.2343 88.9761 42.1946 132.256 42.1946C175.535 42.1946 216.644 38.2343 216.644 48.2224Z" fill="#A5462A"/>
<path d="M180.833 53.0443C180.833 61.001 162.195 66.3054 132.611 66.3054C103.021 66.3054 84.3887 61.001 84.3887 53.0443C84.3887 49.6326 85.0035 45.9617 86.0704 42.1943C100.465 54.2499 164.757 54.2499 179.157 42.2184C180.212 45.9738 180.833 49.6386 180.833 53.0443Z" fill="#292F33"/>
<path d="M42.1944 191.382C42.1944 189.384 41.4006 187.467 39.9876 186.054C38.5745 184.641 36.6581 183.847 34.6597 183.847C32.6614 183.847 30.7449 184.641 29.3319 186.054C27.9188 187.467 27.125 189.384 27.125 191.382V217H42.1944V191.382Z" fill="#C1694F"/>
<path d="M60.2959 137.132C60.2959 151.297 48.819 162.768 34.6597 162.768C20.5005 162.768 9.02358 151.297 9.02358 137.132C9.02358 136.613 0 136.626 0 137.132C0 146.324 3.65164 155.14 10.1516 161.64C16.6516 168.14 25.4674 171.792 34.6597 171.792C43.8521 171.792 52.6679 168.14 59.1678 161.64C65.6678 155.14 69.3194 146.324 69.3194 137.132C69.3194 136.626 60.2959 136.613 60.2959 137.132Z" fill="#66757F"/>
<path d="M9.04167 137.132C9.04167 138.331 8.56537 139.481 7.71755 140.329C6.86972 141.176 5.71983 141.653 4.52083 141.653C3.32183 141.653 2.17194 141.176 1.32412 140.329C0.476301 139.481 0 138.331 0 137.132L0 85.8958C0 84.6968 0.476301 83.5469 1.32412 82.6991C2.17194 81.8513 3.32183 81.375 4.52083 81.375C5.71983 81.375 6.86972 81.8513 7.71755 82.6991C8.56537 83.5469 9.04167 84.6968 9.04167 85.8958V137.132ZM69.3194 137.132C69.3194 138.331 68.8431 139.481 67.9953 140.329C67.1475 141.176 65.9976 141.653 64.7986 141.653C63.5996 141.653 62.4497 141.176 61.6019 140.329C60.7541 139.481 60.2778 138.331 60.2778 137.132V85.8958C60.2778 84.6968 60.7541 83.5469 61.6019 82.6991C62.4497 81.8513 63.5996 81.375 64.7986 81.375C65.9976 81.375 67.1475 81.8513 67.9953 82.6991C68.8431 83.5469 69.3194 84.6968 69.3194 85.8958V137.132ZM39.1806 186.861C39.1806 188.06 38.7043 189.21 37.8564 190.058C37.0086 190.906 35.8587 191.382 34.6597 191.382C33.4607 191.382 32.3108 190.906 31.463 190.058C30.6152 189.21 30.1389 188.06 30.1389 186.861V85.8958C30.1389 84.6968 30.6152 83.5469 31.463 82.6991C32.3108 81.8513 33.4607 81.375 34.6597 81.375C35.8587 81.375 37.0086 81.8513 37.8564 82.6991C38.7043 83.5469 39.1806 84.6968 39.1806 85.8958V186.861Z" fill="#66757F"/>
</g>
<defs>
<clipPath id="clip0_117_17">
<rect width="217" height="217" fill="white"/>
</clipPath>
</defs>
</svg>
