<svg width="283" height="283" viewBox="0 0 283 283" fill="none" xmlns="http://www.w3.org/2000/svg">
<path d="M71.5363 185.915C75.8599 189.846 80.5766 193.384 85.6863 196.528C91.9752 191.811 99.0502 189.06 106.911 188.274C131.281 207.927 156.043 207.927 180.413 188.274C186.309 188.667 192.204 190.632 196.921 194.17C201.245 191.418 204.782 188.274 208.713 185.129C213.429 182.378 220.897 152.506 210.285 134.032C208.713 130.495 207.14 127.35 205.568 123.813C199.672 110.842 197.707 106.125 196.528 82.5419C196.528 67.9988 181.592 55.8141 167.049 54.6349C165.87 54.6349 165.083 54.2419 164.297 53.4558C163.904 53.0627 154.864 42.8433 135.997 42.8433C111.628 42.8433 91.1891 56.2072 86.0793 75.0738C84.1141 82.9349 83.3279 91.1891 83.721 99.4433C84.5071 107.304 83.3279 115.559 80.5766 123.027C79.7904 126.171 78.2182 128.922 76.2529 131.281C60.9238 148.182 71.9293 187.095 71.5363 185.915Z" fill="#664131"/>
<path d="M100.622 117.131V121.061C100.622 152.113 118.703 176.482 141.893 176.482C165.083 176.482 183.164 152.113 183.164 121.061C183.164 102.195 176.089 90.4029 162.332 75.8599C151.326 84.5071 139.535 92.3682 126.957 99.4432C116.344 105.339 102.194 113.593 100.622 117.131Z" fill="#EBCCB8"/>
<path d="M66.8193 239.764V224.042C66.8193 204.389 86.4721 188.667 106.125 188.667C129.708 208.319 153.292 208.319 176.875 188.667C196.528 188.667 216.18 204.389 216.18 224.042V239.764" fill="#92D3F5"/>
<path d="M73.8943 183.164C59.3513 159.974 71.536 143.465 78.611 125.385C84.8999 108.877 77.8249 99.8363 83.7207 78.2183C89.6166 56.6002 112.414 42.8433 137.569 42.8433C158.794 42.8433 169.014 54.6349 169.014 54.6349C185.522 56.2072 198.1 69.9641 198.1 86.0794C199.672 114.379 202.03 114.379 211.464 136.39C218.146 151.72 215.787 169.014 205.961 182.378M66.8193 235.44V223.649C66.8193 203.996 86.4721 188.274 106.125 188.274C129.708 207.927 153.292 207.927 176.875 188.274C196.528 188.274 216.18 203.996 216.18 223.649V235.44" stroke="black" stroke-width="2" stroke-linecap="round" stroke-linejoin="round"/>
<path d="M165.083 117.524C165.083 121.847 161.546 125.385 157.222 125.385C152.898 125.385 149.361 121.847 149.361 117.524C149.361 113.2 152.898 109.663 157.222 109.663C161.546 109.663 165.083 113.2 165.083 117.524ZM133.639 117.524C133.639 121.847 130.101 125.385 125.778 125.385C121.454 125.385 117.917 121.847 117.917 117.524C117.917 113.2 121.454 109.663 125.778 109.663C130.101 109.663 133.639 113.2 133.639 117.524Z" fill="black"/>
<path d="M98.2637 121.454C98.2637 152.899 117.916 176.482 141.5 176.482C165.083 176.482 184.736 152.899 184.736 121.454C184.736 101.801 176.875 90.0098 161.153 74.2876C145.43 90.0098 98.2637 109.663 98.2637 117.524V121.454Z" stroke="black" stroke-width="2" stroke-linejoin="round"/>
<path d="M129.708 149.754C137.177 153.685 145.824 153.685 153.292 149.754" stroke="black" stroke-width="2" stroke-linecap="round" stroke-linejoin="round"/>
</svg>
