<?xml version="1.0" standalone="no"?>
<!DOCTYPE svg PUBLIC "-//W3C//DTD SVG 20010904//EN"
 "http://www.w3.org/TR/2001/REC-SVG-20010904/DTD/svg10.dtd">
<svg version="1.0" xmlns="http://www.w3.org/2000/svg"
 width="512.000000pt" height="512.000000pt" viewBox="0 0 512.000000 512.000000"
 preserveAspectRatio="xMidYMid meet">

<g transform="translate(0.000000,512.000000) scale(0.100000,-0.100000)"
fill="#000000" stroke="none">
<path d="M2240 4322 c0 -633 -1 -673 -20 -746 -29 -116 -73 -190 -165 -281
-128 -128 -209 -160 -455 -180 -235 -20 -352 -50 -525 -138 -286 -143 -528
-429 -620 -732 -47 -156 -55 -235 -55 -566 l0 -309 -199 -2 -198 -3 356 -617
c196 -339 359 -614 362 -610 8 8 709 1223 709 1228 0 2 -88 4 -195 4 l-195 0
0 293 c0 265 2 300 21 367 75 275 316 448 625 450 276 1 584 131 809 341 l64
61 79 -72 c222 -203 525 -329 796 -330 309 -2 549 -175 625 -450 19 -67 21
-102 21 -367 l0 -293 -195 0 c-107 0 -195 -2 -195 -4 0 -5 701 -1219 709
-1228 3 -4 166 271 362 610 l356 617 -198 3 -199 2 0 309 c0 331 -8 410 -55
566 -28 91 -85 214 -138 295 -120 185 -293 343 -482 437 -174 88 -319 125
-535 138 -215 13 -320 55 -445 180 -92 91 -136 165 -165 281 -19 73 -20 113
-20 746 l0 668 -320 0 -320 0 0 -668z"/>
</g>
</svg>
