<svg width="296" height="279" viewBox="0 0 296 279" fill="none" xmlns="http://www.w3.org/2000/svg">
<path d="M257.446 156.31C261.393 168.903 252.887 179.494 239.213 177.204C241.035 189.793 227.969 200.957 212.166 193.8C218.243 208.393 203.956 216.694 192.717 210.397C198.485 216.98 189.374 239.304 154.126 218.124L147.371 214.624L67.8746 173.414L61.8765 170.306C61.8765 170.306 32.5519 147.746 26.7799 138.302C8.72391 108.872 30.6814 61.6162 69.6999 53.7499L102.354 48.2319L123.893 79.0266L177.637 102.292L230.222 130.122L245.372 144.723L257.446 156.31Z" fill="#FADCBC"/>
<path d="M257.446 156.31C285.077 138.543 278.17 82.5685 257.039 58.0397C218.859 52.3861 211.817 48.887 170.788 42.7606L115.165 40.3658C111.181 39.3802 106.949 39.8423 103.309 41.6605C99.67 43.4787 96.8888 46.5202 95.5177 50.1812C92.2105 61.5984 87.2306 72.5252 80.7218 82.646C79.2803 85.9691 79.2789 89.6925 80.7178 93.0166C82.1568 96.3407 84.9213 99.0004 88.4178 100.424C96.2618 102.269 99.8467 98.9287 106.753 93.8912C112.671 88.5667 117.92 82.6182 122.396 76.1631L178.472 100.204L230.765 127.964C241.1 134.54 251.37 150.606 257.528 156.329M129.541 209.831C131.327 207.258 134.114 205.451 137.301 204.798C140.489 204.146 143.821 204.701 146.578 206.344C152.354 209.494 156.605 215.496 152.654 222.088L145.361 234.104C143.412 236.577 140.574 238.296 137.378 238.939C134.182 239.583 130.846 239.107 127.996 237.6C125.145 236.094 122.974 233.66 121.889 230.755C120.804 227.849 120.879 224.67 122.1 221.813L129.541 209.823V209.831ZM106.231 197.547C108.017 194.975 110.804 193.167 113.992 192.514C117.179 191.862 120.511 192.417 123.268 194.06C129.044 197.21 133.295 203.213 129.344 209.804L122.051 221.82C120.101 224.291 117.264 226.009 114.069 226.651C110.874 227.294 107.541 226.818 104.691 225.313C101.841 223.807 99.6704 221.375 98.5845 218.471C97.4985 215.567 97.5716 212.39 98.7901 209.533L106.231 197.544V197.547Z" fill="#EBCCB8"/>
<path d="M82.962 185.302C84.7475 182.73 87.5349 180.922 90.7223 180.269C93.9098 179.617 97.2416 180.172 99.9985 181.815C105.775 184.965 110.025 190.968 106.075 197.559L98.7816 209.575C96.8322 212.046 93.995 213.764 90.8001 214.406C87.6053 215.049 84.2714 214.573 81.4217 213.068C78.5719 211.562 76.4012 209.13 75.3153 206.226C74.2293 203.322 74.3024 200.145 75.5209 197.288L82.962 185.299V185.302Z" fill="#EBCCB8"/>
<path d="M59.7345 173.019C61.52 170.446 64.3074 168.638 67.4948 167.986C70.6822 167.333 74.014 167.888 76.771 169.531C82.5471 172.682 86.798 178.684 82.8472 185.275L75.5541 197.292C73.6047 199.763 70.7674 201.48 67.5726 202.123C64.3777 202.765 61.0439 202.289 58.1941 200.784C55.3444 199.279 53.1737 196.847 52.0877 193.943C51.0018 191.039 51.0749 187.861 52.2934 185.004L59.7345 173.015V173.019Z" fill="#EBCCB8"/>
<path d="M61.8721 170.306C61.8721 170.306 32.5475 147.746 26.7755 138.303C8.71951 108.872 30.677 61.6162 69.6955 53.75M159.141 166.586L212.133 193.792M139.243 185.186L192.688 210.366M239.184 177.165L218.218 160.278L184.182 143.48" stroke="black" stroke-width="2" stroke-linecap="round" stroke-linejoin="round"/>
<path d="M154.125 218.124C189.374 239.304 198.484 216.981 192.716 210.397C203.956 216.694 218.242 208.394 212.166 193.8C227.969 200.957 241.034 189.794 239.213 177.204C252.886 179.494 261.392 168.903 257.446 156.31C285.076 138.543 278.17 82.5684 257.039 58.0397C218.859 52.3861 211.816 48.8869 170.787 42.7606L115.164 40.3619C111.18 39.3763 106.948 39.8384 103.309 41.6566C99.6696 43.4748 96.8883 46.5162 95.5172 50.1773C92.21 61.5945 87.2301 72.5213 80.7213 82.6421C79.2798 85.9652 79.2784 89.6886 80.7173 93.0127C82.1563 96.3368 84.9208 98.9965 88.4173 100.421C96.2613 102.269 99.8462 98.9248 106.753 93.8873C112.671 88.5628 117.92 82.6143 122.396 76.1592L178.471 100.2L230.764 127.96C241.1 134.54 251.369 150.606 257.528 156.329" stroke="black" stroke-width="2" stroke-linecap="round" stroke-linejoin="round"/>
<path d="M129.541 209.831C131.327 207.258 134.114 205.451 137.301 204.798C140.489 204.146 143.821 204.701 146.578 206.344C152.354 209.494 156.605 215.497 152.654 222.088L145.361 234.104C143.412 236.577 140.574 238.296 137.378 238.939C134.182 239.583 130.846 239.107 127.996 237.6C125.145 236.094 122.974 233.66 121.889 230.755C120.804 227.849 120.879 224.67 122.1 221.813L129.541 209.824V209.831ZM106.231 197.548C108.017 194.975 110.804 193.167 113.991 192.514C117.179 191.862 120.511 192.417 123.268 194.06C129.044 197.21 133.295 203.213 129.344 209.804L122.051 221.821C120.101 224.291 117.264 226.009 114.069 226.651C110.874 227.294 107.54 226.818 104.691 225.313C101.841 223.807 99.6703 221.375 98.5843 218.471C97.4984 215.567 97.5715 212.39 98.79 209.533L106.231 197.544V197.548Z" stroke="black" stroke-width="2" stroke-linecap="round" stroke-linejoin="round"/>
<path d="M82.962 185.302C84.7475 182.73 87.5349 180.922 90.7223 180.269C93.9098 179.617 97.2416 180.172 99.9985 181.815C105.775 184.965 110.025 190.968 106.075 197.559L98.7816 209.575C96.8322 212.046 93.995 213.764 90.8001 214.406C87.6053 215.049 84.2714 214.573 81.4217 213.068C78.5719 211.562 76.4012 209.13 75.3153 206.226C74.2293 203.322 74.3024 200.145 75.5209 197.288L82.962 185.299V185.302Z" stroke="black" stroke-width="2" stroke-linecap="round" stroke-linejoin="round"/>
<path d="M59.7345 173.019C61.52 170.446 64.3074 168.638 67.4948 167.986C70.6822 167.333 74.014 167.888 76.771 169.531C82.5471 172.682 86.798 178.684 82.8472 185.275L75.5541 197.292C73.6047 199.763 70.7674 201.48 67.5726 202.123C64.3777 202.765 61.0439 202.289 58.1941 200.784C55.3444 199.279 53.1737 196.847 52.0877 193.943C51.0018 191.039 51.0749 187.861 52.2934 185.004L59.7345 173.015V173.019Z" stroke="black" stroke-width="2" stroke-linecap="round" stroke-linejoin="round"/>
</svg>
