<svg width="557" height="68" viewBox="0 0 557 68" fill="none" xmlns="http://www.w3.org/2000/svg">
<path d="M37.504 17.392C37.504 20.112 36.8 22.608 35.392 24.88C33.984 27.152 31.936 29.008 29.248 30.448C26.56 31.888 23.36 32.736 19.648 32.992L17.584 44.56C16.784 49.008 14.608 51.232 11.056 51.232C9.104 51.232 7.296 50.656 5.632 49.504C4 48.352 2.688 46.592 1.696 44.224C0.704 41.856 0.208 38.944 0.208 35.488C0.208 28.992 1.248 23.488 3.328 18.976C5.44 14.432 8.256 11.04 11.776 8.8C15.328 6.528 19.232 5.392 23.488 5.392C26.496 5.392 29.04 5.92 31.12 6.976C33.232 8.032 34.816 9.472 35.872 11.296C36.96 13.088 37.504 15.12 37.504 17.392ZM20.512 28.048C27.072 27.216 30.352 23.808 30.352 17.824C30.352 15.712 29.648 14 28.24 12.688C26.864 11.344 24.72 10.672 21.808 10.672C18.512 10.672 15.632 11.712 13.168 13.792C10.736 15.872 8.848 18.768 7.504 22.48C6.192 26.16 5.536 30.368 5.536 35.104C5.536 37.088 5.728 38.848 6.112 40.384C6.528 41.92 7.04 43.12 7.648 43.984C8.288 44.816 8.896 45.232 9.472 45.232C10.272 45.232 10.88 44.128 11.296 41.92L12.88 32.848C11.632 32.656 11.088 32.576 11.248 32.608C10.288 32.448 9.664 32.16 9.376 31.744C9.088 31.296 8.944 30.736 8.944 30.064C8.944 29.36 9.136 28.8 9.52 28.384C9.936 27.968 10.496 27.76 11.2 27.76C11.52 27.76 11.76 27.776 11.92 27.808C12.688 27.936 13.28 28.016 13.696 28.048C14.112 25.552 14.704 22.208 15.472 18.016C15.664 16.928 16.096 16.16 16.768 15.712C17.472 15.232 18.288 14.992 19.216 14.992C20.272 14.992 21.024 15.2 21.472 15.616C21.952 16 22.192 16.624 22.192 17.488C22.192 18 22.16 18.416 22.096 18.736L20.512 28.048ZM39.4776 46.24C38.2616 46.24 37.3976 45.6 36.8856 44.32C36.4056 43.04 36.1656 40.992 36.1656 38.176C36.1656 34.016 36.7576 30.064 37.9416 26.32C38.2296 25.392 38.6936 24.72 39.3336 24.304C40.0056 23.856 40.9336 23.632 42.1176 23.632C42.7576 23.632 43.2056 23.712 43.4616 23.872C43.7176 24.032 43.8456 24.336 43.8456 24.784C43.8456 25.296 43.6056 26.448 43.1256 28.24C42.8056 29.52 42.5496 30.64 42.3576 31.6C42.1656 32.56 42.0056 33.744 41.8776 35.152C42.9336 32.4 44.1176 30.16 45.4296 28.432C46.7416 26.704 48.0216 25.472 49.2696 24.736C50.5496 24 51.7176 23.632 52.7736 23.632C54.8536 23.632 55.8936 24.672 55.8936 26.752C55.8936 27.168 55.7496 28.176 55.4616 29.776C55.2056 31.056 55.0776 31.856 55.0776 32.176C55.0776 33.296 55.4776 33.856 56.2776 33.856C57.1736 33.856 58.3256 33.152 59.7336 31.744C60.1496 31.328 60.5816 31.12 61.0296 31.12C61.4456 31.12 61.7656 31.312 61.9896 31.696C62.2456 32.048 62.3736 32.528 62.3736 33.136C62.3736 34.32 62.0536 35.248 61.4136 35.92C60.5176 36.848 59.4616 37.648 58.2456 38.32C57.0616 38.96 55.7976 39.28 54.4536 39.28C52.7576 39.28 51.4616 38.848 50.5656 37.984C49.7016 37.12 49.2696 35.952 49.2696 34.48C49.2696 34 49.3176 33.52 49.4136 33.04C49.4776 32.4 49.5096 31.968 49.5096 31.744C49.5096 31.232 49.3336 30.976 48.9816 30.976C48.5016 30.976 47.8616 31.52 47.0616 32.608C46.2936 33.664 45.5256 35.072 44.7576 36.832C43.9896 38.592 43.3656 40.448 42.8856 42.4C42.5336 43.904 42.1176 44.928 41.6376 45.472C41.1896 45.984 40.4696 46.24 39.4776 46.24ZM82.3934 31.264C82.8094 31.264 83.1294 31.472 83.3534 31.888C83.5774 32.304 83.6894 32.832 83.6894 33.472C83.6894 35.008 83.2254 35.92 82.2974 36.208C80.3774 36.88 78.2654 37.264 75.9614 37.36C75.3534 40.048 74.1534 42.208 72.3614 43.84C70.5694 45.44 68.5374 46.24 66.2654 46.24C64.3454 46.24 62.6974 45.776 61.3214 44.848C59.9774 43.92 58.9534 42.688 58.2494 41.152C57.5454 39.616 57.1934 37.952 57.1934 36.16C57.1934 33.728 57.6574 31.568 58.5854 29.68C59.5134 27.76 60.7934 26.272 62.4254 25.216C64.0574 24.128 65.8654 23.584 67.8494 23.584C70.2814 23.584 72.2334 24.432 73.7054 26.128C75.2094 27.792 76.0894 29.856 76.3454 32.32C77.8494 32.224 79.6414 31.904 81.7214 31.36C81.9774 31.296 82.2014 31.264 82.3934 31.264ZM66.6494 41.152C67.6734 41.152 68.5534 40.736 69.2894 39.904C70.0574 39.072 70.5694 37.872 70.8254 36.304C69.8334 35.632 69.0654 34.752 68.5214 33.664C68.0094 32.576 67.7534 31.424 67.7534 30.208C67.7534 29.696 67.8014 29.184 67.8974 28.672H67.6574C66.3774 28.672 65.3054 29.296 64.4414 30.544C63.6094 31.76 63.1934 33.488 63.1934 35.728C63.1934 37.488 63.5294 38.832 64.2014 39.76C64.9054 40.688 65.7214 41.152 66.6494 41.152ZM106.834 35.296C107.25 35.296 107.57 35.488 107.794 35.872C108.05 36.256 108.178 36.784 108.178 37.456C108.178 38.736 107.874 39.728 107.266 40.432C105.954 42.032 104.514 43.408 102.946 44.56C101.378 45.68 99.8256 46.24 98.2896 46.24C95.8576 46.24 94.0016 44.816 92.7216 41.968C91.3776 43.664 90.1936 44.8 89.1696 45.376C88.1776 45.952 87.0096 46.24 85.6656 46.24C83.7136 46.24 82.0976 45.52 80.8176 44.08C79.5696 42.608 78.9456 40.704 78.9456 38.368C78.9456 35.808 79.4896 33.44 80.5776 31.264C81.6656 29.056 83.1536 27.264 85.0416 25.888C86.9616 24.48 89.1056 23.648 91.4736 23.392C92.0816 17.184 93.2336 11.888 94.9296 7.504C96.6576 3.088 98.9136 0.879997 101.698 0.879997C103.074 0.879997 104.21 1.504 105.106 2.752C106.034 4 106.498 5.888 106.498 8.416C106.498 12 105.618 16.192 103.858 20.992C102.098 25.792 99.7456 30.72 96.8016 35.776C96.9296 37.632 97.2016 38.96 97.6176 39.76C98.0656 40.56 98.6256 40.96 99.2976 40.96C100.162 40.96 101.042 40.576 101.938 39.808C102.834 39.04 104.034 37.76 105.538 35.968C105.922 35.52 106.354 35.296 106.834 35.296ZM101.17 5.584C100.562 5.584 99.9536 6.672 99.3456 8.848C98.7376 10.992 98.2096 13.808 97.7616 17.296C97.3456 20.784 97.0416 24.432 96.8496 28.24C100.434 20.432 102.226 14.16 102.226 9.424C102.226 8.208 102.114 7.264 101.89 6.592C101.698 5.92 101.458 5.584 101.17 5.584ZM87.3456 41.392C87.9536 41.392 88.5616 41.152 89.1696 40.672C89.7776 40.16 90.5456 39.232 91.4736 37.888C91.1536 36.16 90.9936 34.224 90.9936 32.08C90.9936 31.312 91.0256 30.064 91.0896 28.336C89.3296 28.88 87.8576 30.064 86.6736 31.888C85.5216 33.68 84.9456 35.68 84.9456 37.888C84.9456 40.224 85.7456 41.392 87.3456 41.392ZM109.169 46.24C107.729 46.24 106.545 45.584 105.617 44.272C104.721 42.928 104.273 41.264 104.273 39.28C104.273 36.88 104.433 34.688 104.753 32.704C105.073 30.688 105.601 28.56 106.337 26.32C106.657 25.36 107.105 24.672 107.681 24.256C108.257 23.84 109.169 23.632 110.417 23.632C111.121 23.632 111.601 23.744 111.857 23.968C112.145 24.192 112.289 24.528 112.289 24.976C112.289 25.232 112.113 26.096 111.761 27.568C111.441 28.752 111.185 29.824 110.993 30.784C110.353 34.144 110.033 36.384 110.033 37.504C110.033 38.176 110.113 38.656 110.273 38.944C110.433 39.2 110.689 39.328 111.041 39.328C111.521 39.328 112.113 38.848 112.817 37.888C113.553 36.928 114.321 35.472 115.121 33.52C115.953 31.568 116.753 29.168 117.521 26.32C117.777 25.36 118.161 24.672 118.673 24.256C119.217 23.84 120.017 23.632 121.073 23.632C121.809 23.632 122.321 23.728 122.609 23.92C122.897 24.08 123.041 24.4 123.041 24.88C123.041 25.68 122.641 27.872 121.841 31.456C120.945 35.552 120.497 38.08 120.497 39.04C120.497 39.648 120.625 40.128 120.881 40.48C121.137 40.8 121.473 40.96 121.889 40.96C122.529 40.96 123.281 40.576 124.145 39.808C125.041 39.008 126.225 37.728 127.697 35.968C128.081 35.52 128.513 35.296 128.993 35.296C129.409 35.296 129.729 35.488 129.953 35.872C130.209 36.256 130.337 36.784 130.337 37.456C130.337 38.736 130.033 39.728 129.425 40.432C128.049 42.128 126.561 43.52 124.961 44.608C123.393 45.696 121.601 46.24 119.585 46.24C118.049 46.24 116.913 45.648 116.177 44.464C115.473 43.28 115.121 41.616 115.121 39.472C114.577 41.648 113.761 43.328 112.673 44.512C111.585 45.664 110.417 46.24 109.169 46.24ZM135.613 46.24C132.477 46.24 130.029 45.36 128.269 43.6C126.541 41.808 125.677 39.456 125.677 36.544C125.677 33.952 126.189 31.68 127.213 29.728C128.237 27.776 129.565 26.272 131.197 25.216C132.829 24.16 134.541 23.632 136.333 23.632C138.093 23.632 139.453 24.16 140.413 25.216C141.405 26.24 141.901 27.568 141.901 29.2C141.901 30.544 141.597 31.68 140.989 32.608C140.413 33.536 139.645 34 138.685 34C138.077 34 137.581 33.856 137.197 33.568C136.845 33.28 136.669 32.88 136.669 32.368C136.669 32.144 136.701 31.888 136.765 31.6C136.829 31.312 136.877 31.104 136.909 30.976C137.069 30.496 137.149 30.048 137.149 29.632C137.149 29.216 137.037 28.896 136.813 28.672C136.621 28.448 136.333 28.336 135.949 28.336C135.213 28.336 134.525 28.672 133.885 29.344C133.245 29.984 132.733 30.864 132.349 31.984C131.965 33.104 131.773 34.336 131.773 35.68C131.773 39.392 133.389 41.248 136.621 41.248C137.933 41.248 139.341 40.816 140.845 39.952C142.381 39.056 143.885 37.728 145.357 35.968C145.741 35.52 146.173 35.296 146.653 35.296C147.069 35.296 147.389 35.488 147.613 35.872C147.869 36.256 147.997 36.784 147.997 37.456C147.997 38.672 147.693 39.664 147.085 40.432C145.581 42.288 143.773 43.728 141.661 44.752C139.581 45.744 137.565 46.24 135.613 46.24ZM165.759 35.296C166.175 35.296 166.495 35.488 166.719 35.872C166.975 36.256 167.103 36.784 167.103 37.456C167.103 38.736 166.799 39.728 166.191 40.432C164.815 42.128 163.311 43.52 161.679 44.608C160.047 45.696 158.175 46.24 156.063 46.24C149.535 46.24 146.271 41.648 146.271 32.464C146.271 31.056 146.319 29.632 146.415 28.192H144.543C143.583 28.192 142.927 28.016 142.575 27.664C142.255 27.312 142.095 26.752 142.095 25.984C142.095 24.192 142.815 23.296 144.255 23.296H146.991C147.535 19.776 148.367 16.56 149.487 13.648C150.607 10.736 151.951 8.416 153.519 6.688C155.119 4.96 156.831 4.096 158.655 4.096C159.999 4.096 161.055 4.688 161.823 5.872C162.591 7.056 162.975 8.544 162.975 10.336C162.975 15.296 160.895 19.616 156.735 23.296H162.111C162.623 23.296 162.991 23.408 163.215 23.632C163.439 23.856 163.551 24.272 163.551 24.88C163.551 27.088 161.743 28.192 158.127 28.192H152.271C152.207 29.792 152.175 31.04 152.175 31.936C152.175 35.264 152.559 37.6 153.327 38.944C154.127 40.288 155.375 40.96 157.071 40.96C158.447 40.96 159.663 40.544 160.719 39.712C161.775 38.88 163.023 37.632 164.463 35.968C164.847 35.52 165.279 35.296 165.759 35.296ZM157.359 8.704C156.879 8.704 156.335 9.312 155.727 10.528C155.151 11.712 154.591 13.376 154.047 15.52C153.535 17.632 153.103 19.984 152.751 22.576C154.639 20.944 156.047 19.12 156.975 17.104C157.935 15.056 158.415 13.2 158.415 11.536C158.415 9.648 158.063 8.704 157.359 8.704ZM184.603 35.296C185.019 35.296 185.339 35.488 185.563 35.872C185.819 36.256 185.947 36.784 185.947 37.456C185.947 38.736 185.643 39.728 185.035 40.432C183.851 41.872 182.171 43.2 179.995 44.416C177.851 45.632 175.547 46.24 173.083 46.24C169.723 46.24 167.115 45.328 165.259 43.504C163.403 41.68 162.475 39.184 162.475 36.016C162.475 33.808 162.939 31.76 163.867 29.872C164.795 27.952 166.075 26.432 167.707 25.312C169.371 24.192 171.243 23.632 173.323 23.632C175.179 23.632 176.667 24.192 177.787 25.312C178.907 26.4 179.467 27.888 179.467 29.776C179.467 31.984 178.667 33.888 177.067 35.488C175.499 37.056 172.827 38.304 169.051 39.232C169.851 40.704 171.371 41.44 173.611 41.44C175.051 41.44 176.683 40.944 178.507 39.952C180.363 38.928 181.963 37.6 183.307 35.968C183.691 35.52 184.123 35.296 184.603 35.296ZM172.507 28.336C171.323 28.336 170.315 29.024 169.483 30.4C168.683 31.776 168.283 33.44 168.283 35.392V35.488C170.171 35.04 171.659 34.368 172.747 33.472C173.835 32.576 174.379 31.536 174.379 30.352C174.379 29.744 174.203 29.264 173.851 28.912C173.531 28.528 173.083 28.336 172.507 28.336ZM186.934 46.24C185.494 46.24 184.31 45.584 183.382 44.272C182.486 42.928 182.038 41.264 182.038 39.28C182.038 36.88 182.198 34.688 182.518 32.704C182.838 30.688 183.366 28.56 184.102 26.32C184.422 25.36 184.87 24.672 185.446 24.256C186.022 23.84 186.934 23.632 188.182 23.632C188.886 23.632 189.366 23.744 189.622 23.968C189.91 24.192 190.054 24.528 190.054 24.976C190.054 25.232 189.878 26.096 189.526 27.568C189.206 28.752 188.95 29.824 188.758 30.784C188.118 34.144 187.798 36.384 187.798 37.504C187.798 38.176 187.878 38.656 188.038 38.944C188.198 39.2 188.454 39.328 188.806 39.328C189.286 39.328 189.878 38.848 190.582 37.888C191.318 36.928 192.086 35.472 192.886 33.52C193.718 31.568 194.518 29.168 195.286 26.32C195.542 25.36 195.926 24.672 196.438 24.256C196.982 23.84 197.782 23.632 198.838 23.632C199.574 23.632 200.086 23.728 200.374 23.92C200.662 24.08 200.806 24.4 200.806 24.88C200.806 25.68 200.406 27.872 199.606 31.456C198.71 35.552 198.262 38.08 198.262 39.04C198.262 39.648 198.39 40.128 198.646 40.48C198.902 40.8 199.238 40.96 199.654 40.96C200.294 40.96 201.046 40.576 201.91 39.808C202.806 39.008 203.99 37.728 205.462 35.968C205.846 35.52 206.278 35.296 206.758 35.296C207.174 35.296 207.494 35.488 207.718 35.872C207.974 36.256 208.102 36.784 208.102 37.456C208.102 38.736 207.798 39.728 207.19 40.432C205.814 42.128 204.326 43.52 202.726 44.608C201.158 45.696 199.366 46.24 197.35 46.24C195.814 46.24 194.678 45.648 193.942 44.464C193.238 43.28 192.886 41.616 192.886 39.472C192.342 41.648 191.526 43.328 190.438 44.512C189.35 45.664 188.182 46.24 186.934 46.24ZM223.602 30.208C224.306 30.208 224.898 30.464 225.378 30.976C225.89 31.456 226.146 32.064 226.146 32.8C226.146 33.216 226.05 33.664 225.858 34.144C225.346 35.328 224.626 36.32 223.698 37.12C222.77 37.92 221.746 38.32 220.626 38.32C219.73 38.32 218.962 38 218.322 37.36C217.714 36.72 217.41 35.856 217.41 34.768C217.41 34.16 217.442 33.504 217.506 32.8C217.57 32.288 217.602 31.936 217.602 31.744C217.602 31.488 217.538 31.296 217.41 31.168C217.314 31.04 217.186 30.976 217.026 30.976C216.578 30.976 215.97 31.52 215.202 32.608C214.434 33.664 213.666 35.072 212.898 36.832C212.13 38.592 211.506 40.448 211.026 42.4C210.674 43.936 210.274 44.96 209.826 45.472C209.378 45.984 208.642 46.24 207.618 46.24C206.402 46.24 205.538 45.6 205.026 44.32C204.546 43.04 204.306 40.992 204.306 38.176C204.306 34.016 204.898 30.064 206.082 26.32C206.37 25.392 206.834 24.72 207.474 24.304C208.146 23.856 209.074 23.632 210.258 23.632C210.898 23.632 211.346 23.712 211.602 23.872C211.858 24.032 211.986 24.336 211.986 24.784C211.986 25.296 211.746 26.448 211.266 28.24C210.946 29.52 210.69 30.64 210.498 31.6C210.306 32.56 210.146 33.744 210.018 35.152C211.074 32.4 212.258 30.16 213.57 28.432C214.882 26.704 216.162 25.472 217.41 24.736C218.658 24 219.794 23.632 220.818 23.632C221.746 23.632 222.45 23.904 222.93 24.448C223.442 24.96 223.698 25.728 223.698 26.752C223.698 27.36 223.522 28.512 223.17 30.208H223.602ZM235.685 47.296C234.021 47.296 232.741 46.912 231.845 46.144C230.981 45.376 230.549 44.512 230.549 43.552C230.549 42.72 230.853 42 231.461 41.392C232.069 40.784 232.965 40.48 234.149 40.48C234.565 40.48 235.045 40.528 235.589 40.624C236.165 40.688 236.597 40.736 236.885 40.768C236.853 39.936 236.661 39.152 236.309 38.416C235.989 37.68 235.573 36.976 235.061 36.304C234.549 35.6 234.069 34.992 233.621 34.48C232.629 36.368 231.637 37.936 230.645 39.184C229.685 40.432 228.629 41.616 227.477 42.736C226.901 43.312 226.293 43.6 225.653 43.6C225.141 43.6 224.725 43.424 224.405 43.072C224.085 42.688 223.925 42.224 223.925 41.68C223.925 41.04 224.149 40.448 224.597 39.904L225.221 39.136C226.981 36.96 228.309 35.168 229.205 33.76C229.781 32.832 230.357 31.728 230.933 30.448C231.541 29.168 232.325 27.424 233.285 25.216C233.893 23.808 235.157 23.104 237.077 23.104C237.973 23.104 238.597 23.184 238.949 23.344C239.301 23.504 239.477 23.76 239.477 24.112C239.477 24.304 239.413 24.608 239.285 25.024C239.157 25.44 238.981 25.856 238.757 26.272C238.181 27.424 237.893 28.4 237.893 29.2C237.893 29.68 238.053 30.208 238.373 30.784C238.725 31.36 239.253 32.08 239.957 32.944C240.981 34.288 241.749 35.44 242.261 36.4C242.805 37.328 243.077 38.352 243.077 39.472C243.077 40.816 242.757 42.096 242.117 43.312C241.509 44.496 240.645 45.456 239.525 46.192C238.405 46.928 237.125 47.296 235.685 47.296ZM283.983 35.296C284.399 35.296 284.719 35.488 284.943 35.872C285.199 36.256 285.327 36.784 285.327 37.456C285.327 38.736 285.023 39.728 284.415 40.432C283.039 42.128 281.551 43.52 279.951 44.608C278.383 45.696 276.591 46.24 274.575 46.24C272.879 46.24 271.503 45.632 270.447 44.416C268.623 45.6 266.719 46.208 264.735 46.24C264.319 52.416 263.375 57.568 261.903 61.696C260.431 65.856 258.271 67.936 255.423 67.936C253.695 67.936 252.415 67.312 251.583 66.064C250.751 64.816 250.335 63.088 250.335 60.88C250.335 57.744 251.055 54.08 252.495 49.888C253.935 45.728 256.159 41.136 259.167 36.112C259.167 31.44 259.135 28.192 259.071 26.368C259.039 25.44 259.407 24.704 260.175 24.16C260.943 23.616 261.903 23.344 263.055 23.344C263.727 23.344 264.207 23.488 264.495 23.776C264.815 24.032 264.991 24.56 265.023 25.36C265.023 26.16 265.039 26.752 265.071 27.136C266.095 25.856 267.103 24.944 268.095 24.4C269.087 23.824 270.143 23.536 271.263 23.536C273.055 23.536 274.511 24.256 275.631 25.696C276.783 27.136 277.359 29.024 277.359 31.36C277.359 33.056 277.087 34.704 276.543 36.304C275.999 37.904 275.247 39.36 274.287 40.672C274.959 40.864 275.519 40.96 275.967 40.96C277.023 40.96 278.031 40.576 278.991 39.808C279.951 39.04 281.183 37.76 282.687 35.968C283.071 35.52 283.503 35.296 283.983 35.296ZM264.975 41.632C266.127 41.376 267.183 40.752 268.143 39.76C269.135 38.736 269.919 37.488 270.495 36.016C271.071 34.512 271.359 32.944 271.359 31.312C271.359 30.352 271.167 29.632 270.783 29.152C270.399 28.64 269.887 28.384 269.247 28.384C268.095 28.384 266.703 29.6 265.071 32.032C265.039 33.44 265.023 35.504 265.023 38.224C265.023 39.696 265.007 40.832 264.975 41.632ZM255.807 63.232C256.671 63.232 257.391 61.344 257.967 57.568C258.543 53.824 258.911 49.152 259.071 43.552C257.695 46.752 256.607 49.808 255.807 52.72C255.007 55.632 254.607 58.08 254.607 60.064C254.607 61.088 254.735 61.872 254.991 62.416C255.215 62.96 255.487 63.232 255.807 63.232ZM284.868 46.24C283.652 46.24 282.788 45.6 282.276 44.32C281.796 43.04 281.556 40.992 281.556 38.176C281.556 34.016 282.148 30.064 283.332 26.32C283.62 25.392 284.084 24.72 284.724 24.304C285.396 23.856 286.324 23.632 287.508 23.632C288.148 23.632 288.596 23.712 288.852 23.872C289.108 24.032 289.236 24.336 289.236 24.784C289.236 25.296 288.996 26.448 288.516 28.24C288.196 29.52 287.94 30.64 287.748 31.6C287.556 32.56 287.396 33.744 287.268 35.152C288.324 32.4 289.508 30.16 290.82 28.432C292.132 26.704 293.412 25.472 294.66 24.736C295.94 24 297.108 23.632 298.164 23.632C300.244 23.632 301.284 24.672 301.284 26.752C301.284 27.168 301.14 28.176 300.852 29.776C300.596 31.056 300.468 31.856 300.468 32.176C300.468 33.296 300.868 33.856 301.668 33.856C302.564 33.856 303.716 33.152 305.124 31.744C305.54 31.328 305.972 31.12 306.42 31.12C306.836 31.12 307.156 31.312 307.38 31.696C307.636 32.048 307.764 32.528 307.764 33.136C307.764 34.32 307.444 35.248 306.804 35.92C305.908 36.848 304.852 37.648 303.636 38.32C302.452 38.96 301.188 39.28 299.844 39.28C298.148 39.28 296.852 38.848 295.956 37.984C295.092 37.12 294.66 35.952 294.66 34.48C294.66 34 294.708 33.52 294.804 33.04C294.868 32.4 294.9 31.968 294.9 31.744C294.9 31.232 294.724 30.976 294.372 30.976C293.892 30.976 293.252 31.52 292.452 32.608C291.684 33.664 290.916 35.072 290.148 36.832C289.38 38.592 288.756 40.448 288.276 42.4C287.924 43.904 287.508 44.928 287.028 45.472C286.58 45.984 285.86 46.24 284.868 46.24ZM327.784 31.264C328.2 31.264 328.52 31.472 328.744 31.888C328.968 32.304 329.08 32.832 329.08 33.472C329.08 35.008 328.616 35.92 327.688 36.208C325.768 36.88 323.656 37.264 321.352 37.36C320.744 40.048 319.544 42.208 317.752 43.84C315.96 45.44 313.928 46.24 311.656 46.24C309.736 46.24 308.088 45.776 306.712 44.848C305.368 43.92 304.344 42.688 303.64 41.152C302.936 39.616 302.584 37.952 302.584 36.16C302.584 33.728 303.048 31.568 303.976 29.68C304.904 27.76 306.184 26.272 307.816 25.216C309.448 24.128 311.256 23.584 313.24 23.584C315.672 23.584 317.624 24.432 319.096 26.128C320.6 27.792 321.48 29.856 321.736 32.32C323.24 32.224 325.032 31.904 327.112 31.36C327.368 31.296 327.592 31.264 327.784 31.264ZM312.04 41.152C313.064 41.152 313.944 40.736 314.68 39.904C315.448 39.072 315.96 37.872 316.216 36.304C315.224 35.632 314.456 34.752 313.912 33.664C313.4 32.576 313.144 31.424 313.144 30.208C313.144 29.696 313.192 29.184 313.288 28.672H313.048C311.768 28.672 310.696 29.296 309.832 30.544C309 31.76 308.584 33.488 308.584 35.728C308.584 37.488 308.92 38.832 309.592 39.76C310.296 40.688 311.112 41.152 312.04 41.152ZM334.128 46.24C330.992 46.24 328.544 45.36 326.784 43.6C325.056 41.808 324.192 39.456 324.192 36.544C324.192 33.952 324.704 31.68 325.728 29.728C326.752 27.776 328.08 26.272 329.712 25.216C331.344 24.16 333.056 23.632 334.848 23.632C336.608 23.632 337.968 24.16 338.928 25.216C339.92 26.24 340.416 27.568 340.416 29.2C340.416 30.544 340.112 31.68 339.504 32.608C338.928 33.536 338.16 34 337.2 34C336.592 34 336.096 33.856 335.712 33.568C335.36 33.28 335.184 32.88 335.184 32.368C335.184 32.144 335.216 31.888 335.28 31.6C335.344 31.312 335.392 31.104 335.424 30.976C335.584 30.496 335.664 30.048 335.664 29.632C335.664 29.216 335.552 28.896 335.328 28.672C335.136 28.448 334.848 28.336 334.464 28.336C333.728 28.336 333.04 28.672 332.4 29.344C331.76 29.984 331.248 30.864 330.864 31.984C330.48 33.104 330.288 34.336 330.288 35.68C330.288 39.392 331.904 41.248 335.136 41.248C336.448 41.248 337.856 40.816 339.36 39.952C340.896 39.056 342.4 37.728 343.872 35.968C344.256 35.52 344.688 35.296 345.168 35.296C345.584 35.296 345.904 35.488 346.128 35.872C346.384 36.256 346.512 36.784 346.512 37.456C346.512 38.672 346.208 39.664 345.6 40.432C344.096 42.288 342.288 43.728 340.176 44.752C338.096 45.744 336.08 46.24 334.128 46.24ZM369.272 35.296C369.688 35.296 370.008 35.488 370.232 35.872C370.488 36.256 370.616 36.784 370.616 37.456C370.616 38.736 370.312 39.728 369.704 40.432C368.232 42.128 366.712 43.52 365.144 44.608C363.608 45.696 361.848 46.24 359.864 46.24C358.232 46.24 357 45.776 356.168 44.848C355.336 43.888 354.92 42.512 354.92 40.72C354.92 39.824 355.144 38.224 355.592 35.92C356.008 33.904 356.216 32.512 356.216 31.744C356.216 31.232 356.04 30.976 355.688 30.976C355.272 30.976 354.68 31.52 353.912 32.608C353.144 33.664 352.376 35.072 351.608 36.832C350.84 38.592 350.216 40.448 349.736 42.4C349.128 44.96 347.624 46.24 345.224 46.24C344.264 46.24 343.624 45.904 343.304 45.232C343.016 44.528 342.872 43.28 342.872 41.488C342.872 40.464 342.888 39.648 342.92 39.04L342.968 35.2C342.968 30.272 343.464 25.136 344.456 19.792C345.48 14.448 346.968 9.968 348.92 6.352C350.904 2.704 353.272 0.879997 356.024 0.879997C357.496 0.879997 358.68 1.52 359.576 2.8C360.504 4.048 360.968 5.68 360.968 7.696C360.968 10.928 360.024 14.288 358.136 17.776C356.248 21.232 353.176 25.28 348.92 29.92C348.824 31.584 348.776 33.296 348.776 35.056C349.832 32.336 351 30.128 352.28 28.432C353.592 26.704 354.872 25.472 356.12 24.736C357.4 24 358.568 23.632 359.624 23.632C361.704 23.632 362.744 24.672 362.744 26.752C362.744 28 362.392 30.256 361.688 33.52C361.08 36.304 360.776 38.144 360.776 39.04C360.776 40.32 361.24 40.96 362.168 40.96C362.808 40.96 363.56 40.576 364.424 39.808C365.32 39.008 366.504 37.728 367.976 35.968C368.36 35.52 368.792 35.296 369.272 35.296ZM355.016 5.632C354.44 5.632 353.8 6.464 353.096 8.128C352.392 9.76 351.704 11.984 351.032 14.8C350.392 17.584 349.864 20.624 349.448 23.92C351.432 21.584 353.064 19.04 354.344 16.288C355.656 13.536 356.312 11.04 356.312 8.8C356.312 7.776 356.2 6.992 355.976 6.448C355.752 5.904 355.432 5.632 355.016 5.632ZM388.134 35.296C388.55 35.296 388.87 35.488 389.094 35.872C389.35 36.256 389.478 36.784 389.478 37.456C389.478 38.736 389.174 39.728 388.566 40.432C387.382 41.872 385.702 43.2 383.526 44.416C381.382 45.632 379.078 46.24 376.614 46.24C373.254 46.24 370.646 45.328 368.79 43.504C366.934 41.68 366.006 39.184 366.006 36.016C366.006 33.808 366.47 31.76 367.398 29.872C368.326 27.952 369.606 26.432 371.238 25.312C372.902 24.192 374.774 23.632 376.854 23.632C378.71 23.632 380.198 24.192 381.318 25.312C382.438 26.4 382.998 27.888 382.998 29.776C382.998 31.984 382.198 33.888 380.598 35.488C379.03 37.056 376.358 38.304 372.582 39.232C373.382 40.704 374.902 41.44 377.142 41.44C378.582 41.44 380.214 40.944 382.038 39.952C383.894 38.928 385.494 37.6 386.838 35.968C387.222 35.52 387.654 35.296 388.134 35.296ZM376.038 28.336C374.854 28.336 373.846 29.024 373.014 30.4C372.214 31.776 371.814 33.44 371.814 35.392V35.488C373.702 35.04 375.19 34.368 376.278 33.472C377.366 32.576 377.91 31.536 377.91 30.352C377.91 29.744 377.734 29.264 377.382 28.912C377.062 28.528 376.614 28.336 376.038 28.336ZM394.498 47.296C392.834 47.296 391.554 46.912 390.658 46.144C389.794 45.376 389.362 44.512 389.362 43.552C389.362 42.72 389.666 42 390.274 41.392C390.882 40.784 391.778 40.48 392.962 40.48C393.378 40.48 393.858 40.528 394.402 40.624C394.978 40.688 395.41 40.736 395.698 40.768C395.666 39.936 395.474 39.152 395.122 38.416C394.802 37.68 394.386 36.976 393.874 36.304C393.362 35.6 392.882 34.992 392.434 34.48C391.442 36.368 390.45 37.936 389.458 39.184C388.498 40.432 387.442 41.616 386.29 42.736C385.714 43.312 385.106 43.6 384.466 43.6C383.954 43.6 383.538 43.424 383.218 43.072C382.898 42.688 382.738 42.224 382.738 41.68C382.738 41.04 382.962 40.448 383.41 39.904L384.034 39.136C385.794 36.96 387.122 35.168 388.018 33.76C388.594 32.832 389.17 31.728 389.746 30.448C390.354 29.168 391.138 27.424 392.098 25.216C392.706 23.808 393.97 23.104 395.89 23.104C396.786 23.104 397.41 23.184 397.762 23.344C398.114 23.504 398.29 23.76 398.29 24.112C398.29 24.304 398.226 24.608 398.098 25.024C397.97 25.44 397.794 25.856 397.57 26.272C396.994 27.424 396.706 28.4 396.706 29.2C396.706 29.68 396.866 30.208 397.186 30.784C397.538 31.36 398.066 32.08 398.77 32.944C399.794 34.288 400.562 35.44 401.074 36.4C401.618 37.328 401.89 38.352 401.89 39.472C401.89 40.816 401.57 42.096 400.93 43.312C400.322 44.496 399.458 45.456 398.338 46.192C397.218 46.928 395.938 47.296 394.498 47.296ZM444.427 35.296C444.843 35.296 445.163 35.488 445.387 35.872C445.643 36.256 445.771 36.784 445.771 37.456C445.771 38.736 445.467 39.728 444.859 40.432C443.547 42.032 442.107 43.408 440.539 44.56C438.971 45.68 437.419 46.24 435.883 46.24C433.451 46.24 431.595 44.816 430.315 41.968C428.971 43.664 427.787 44.8 426.763 45.376C425.771 45.952 424.603 46.24 423.259 46.24C421.307 46.24 419.691 45.52 418.411 44.08C417.163 42.608 416.539 40.704 416.539 38.368C416.539 35.808 417.083 33.44 418.171 31.264C419.259 29.056 420.747 27.264 422.635 25.888C424.555 24.48 426.699 23.648 429.067 23.392C429.675 17.184 430.827 11.888 432.523 7.504C434.251 3.088 436.507 0.879997 439.291 0.879997C440.667 0.879997 441.803 1.504 442.699 2.752C443.627 4 444.091 5.888 444.091 8.416C444.091 12 443.211 16.192 441.451 20.992C439.691 25.792 437.339 30.72 434.395 35.776C434.523 37.632 434.795 38.96 435.211 39.76C435.659 40.56 436.219 40.96 436.891 40.96C437.755 40.96 438.635 40.576 439.531 39.808C440.427 39.04 441.627 37.76 443.131 35.968C443.515 35.52 443.947 35.296 444.427 35.296ZM438.763 5.584C438.155 5.584 437.547 6.672 436.939 8.848C436.331 10.992 435.803 13.808 435.355 17.296C434.939 20.784 434.635 24.432 434.443 28.24C438.027 20.432 439.819 14.16 439.819 9.424C439.819 8.208 439.707 7.264 439.483 6.592C439.291 5.92 439.051 5.584 438.763 5.584ZM424.939 41.392C425.547 41.392 426.155 41.152 426.763 40.672C427.371 40.16 428.139 39.232 429.067 37.888C428.747 36.16 428.587 34.224 428.587 32.08C428.587 31.312 428.619 30.064 428.683 28.336C426.923 28.88 425.451 30.064 424.267 31.888C423.115 33.68 422.539 35.68 422.539 37.888C422.539 40.224 423.339 41.392 424.939 41.392ZM459.051 36.736C459.467 36.736 459.787 36.928 460.011 37.312C460.267 37.696 460.395 38.224 460.395 38.896C460.395 40.048 460.123 41.04 459.579 41.872C458.683 43.248 457.499 44.32 456.027 45.088C454.587 45.856 452.859 46.24 450.843 46.24C447.771 46.24 445.387 45.328 443.691 43.504C441.995 41.648 441.146 39.152 441.146 36.016C441.146 33.808 441.611 31.76 442.539 29.872C443.467 27.952 444.747 26.432 446.379 25.312C448.043 24.192 449.915 23.632 451.995 23.632C453.851 23.632 455.339 24.192 456.459 25.312C457.579 26.4 458.139 27.888 458.139 29.776C458.139 31.984 457.339 33.888 455.739 35.488C454.171 37.056 451.483 38.304 447.675 39.232C448.443 40.704 449.739 41.44 451.562 41.44C452.875 41.44 453.947 41.136 454.779 40.528C455.643 39.92 456.635 38.896 457.755 37.456C458.139 36.976 458.571 36.736 459.051 36.736ZM451.179 28.336C449.995 28.336 448.987 29.024 448.155 30.4C447.355 31.776 446.955 33.44 446.955 35.392V35.488C448.843 35.04 450.331 34.368 451.419 33.472C452.507 32.576 453.051 31.536 453.051 30.352C453.051 29.744 452.875 29.264 452.523 28.912C452.203 28.528 451.755 28.336 451.179 28.336ZM498.064 31.408C498.16 31.376 498.32 31.36 498.544 31.36C499.024 31.36 499.392 31.52 499.648 31.84C499.904 32.16 500.032 32.592 500.032 33.136C500.032 34.128 499.84 34.912 499.456 35.488C499.072 36.032 498.496 36.432 497.728 36.688C496.256 37.168 494.688 37.408 493.024 37.408C491.616 37.408 490.288 37.216 489.04 36.832C488.112 38.336 487.088 39.888 485.968 41.488C484.688 43.312 483.584 44.56 482.656 45.232C481.728 45.904 480.672 46.24 479.488 46.24C478.176 46.24 477.136 45.728 476.368 44.704C475.632 43.68 475.168 42.064 474.976 39.856C474.592 35.376 474.4 31.456 474.4 28.096V26.416C474.432 25.36 474.72 24.624 475.264 24.208C475.808 23.792 476.624 23.584 477.712 23.584C478.544 23.584 479.152 23.776 479.536 24.16C479.952 24.512 480.16 25.12 480.16 25.984C480.16 29.664 480.384 34.448 480.832 40.336C482.752 37.488 484.192 35.216 485.152 33.52C484.672 32.592 484.432 31.488 484.432 30.208C484.432 29.12 484.672 28.064 485.152 27.04C485.632 26.016 486.288 25.184 487.12 24.544C487.952 23.904 488.896 23.584 489.952 23.584C490.88 23.584 491.632 23.92 492.208 24.592C492.784 25.232 493.072 26.176 493.072 27.424C493.072 28.864 492.688 30.512 491.92 32.368C493.136 32.304 494.752 32.064 496.768 31.648L498.064 31.408ZM520.347 31.264C520.763 31.264 521.083 31.472 521.307 31.888C521.531 32.304 521.643 32.832 521.643 33.472C521.643 35.008 521.179 35.92 520.251 36.208C518.331 36.88 516.219 37.264 513.915 37.36C513.307 40.048 512.107 42.208 510.315 43.84C508.523 45.44 506.491 46.24 504.219 46.24C502.299 46.24 500.651 45.776 499.275 44.848C497.931 43.92 496.907 42.688 496.203 41.152C495.499 39.616 495.146 37.952 495.146 36.16C495.146 33.728 495.611 31.568 496.539 29.68C497.467 27.76 498.747 26.272 500.379 25.216C502.011 24.128 503.819 23.584 505.803 23.584C508.235 23.584 510.187 24.432 511.659 26.128C513.163 27.792 514.043 29.856 514.299 32.32C515.803 32.224 517.595 31.904 519.675 31.36C519.931 31.296 520.155 31.264 520.347 31.264ZM504.603 41.152C505.627 41.152 506.507 40.736 507.243 39.904C508.011 39.072 508.523 37.872 508.779 36.304C507.787 35.632 507.019 34.752 506.475 33.664C505.963 32.576 505.707 31.424 505.707 30.208C505.707 29.696 505.755 29.184 505.851 28.672H505.611C504.331 28.672 503.259 29.296 502.395 30.544C501.563 31.76 501.147 33.488 501.147 35.728C501.147 37.488 501.483 38.832 502.155 39.76C502.859 40.688 503.675 41.152 504.603 41.152ZM522.419 46.24C520.979 46.24 519.795 45.584 518.867 44.272C517.971 42.928 517.523 41.264 517.523 39.28C517.523 36.88 517.683 34.688 518.003 32.704C518.323 30.688 518.851 28.56 519.587 26.32C519.907 25.36 520.355 24.672 520.931 24.256C521.507 23.84 522.419 23.632 523.667 23.632C524.371 23.632 524.851 23.744 525.107 23.968C525.395 24.192 525.539 24.528 525.539 24.976C525.539 25.232 525.363 26.096 525.011 27.568C524.691 28.752 524.435 29.824 524.243 30.784C523.603 34.144 523.283 36.384 523.283 37.504C523.283 38.176 523.363 38.656 523.523 38.944C523.683 39.2 523.939 39.328 524.291 39.328C524.771 39.328 525.363 38.848 526.067 37.888C526.803 36.928 527.571 35.472 528.371 33.52C529.203 31.568 530.003 29.168 530.771 26.32C531.027 25.36 531.411 24.672 531.923 24.256C532.467 23.84 533.267 23.632 534.323 23.632C535.059 23.632 535.571 23.728 535.859 23.92C536.147 24.08 536.291 24.4 536.291 24.88C536.291 25.68 535.891 27.872 535.091 31.456C534.195 35.552 533.747 38.08 533.747 39.04C533.747 39.648 533.875 40.128 534.131 40.48C534.387 40.8 534.723 40.96 535.139 40.96C535.779 40.96 536.531 40.576 537.395 39.808C538.291 39.008 539.475 37.728 540.947 35.968C541.331 35.52 541.763 35.296 542.243 35.296C542.659 35.296 542.979 35.488 543.203 35.872C543.459 36.256 543.587 36.784 543.587 37.456C543.587 38.736 543.283 39.728 542.675 40.432C541.299 42.128 539.811 43.52 538.211 44.608C536.643 45.696 534.851 46.24 532.835 46.24C531.299 46.24 530.163 45.648 529.427 44.464C528.723 43.28 528.371 41.616 528.371 39.472C527.827 41.648 527.011 43.328 525.923 44.512C524.835 45.664 523.667 46.24 522.419 46.24ZM548.623 47.296C546.959 47.296 545.679 46.912 544.783 46.144C543.919 45.376 543.487 44.512 543.487 43.552C543.487 42.72 543.791 42 544.399 41.392C545.007 40.784 545.903 40.48 547.087 40.48C547.503 40.48 547.983 40.528 548.527 40.624C549.103 40.688 549.535 40.736 549.823 40.768C549.791 39.936 549.599 39.152 549.247 38.416C548.927 37.68 548.511 36.976 547.999 36.304C547.487 35.6 547.007 34.992 546.559 34.48C545.567 36.368 544.575 37.936 543.583 39.184C542.623 40.432 541.567 41.616 540.415 42.736C539.839 43.312 539.231 43.6 538.591 43.6C538.079 43.6 537.663 43.424 537.343 43.072C537.023 42.688 536.863 42.224 536.863 41.68C536.863 41.04 537.087 40.448 537.535 39.904L538.159 39.136C539.919 36.96 541.247 35.168 542.143 33.76C542.719 32.832 543.295 31.728 543.871 30.448C544.479 29.168 545.263 27.424 546.223 25.216C546.831 23.808 548.095 23.104 550.015 23.104C550.911 23.104 551.535 23.184 551.887 23.344C552.239 23.504 552.415 23.76 552.415 24.112C552.415 24.304 552.351 24.608 552.223 25.024C552.095 25.44 551.919 25.856 551.695 26.272C551.119 27.424 550.831 28.4 550.831 29.2C550.831 29.68 550.991 30.208 551.311 30.784C551.663 31.36 552.191 32.08 552.895 32.944C553.919 34.288 554.687 35.44 555.199 36.4C555.743 37.328 556.015 38.352 556.015 39.472C556.015 40.816 555.695 42.096 555.055 43.312C554.447 44.496 553.583 45.456 552.463 46.192C551.343 46.928 550.063 47.296 548.623 47.296Z" fill="#D93D04"/>
</svg>
