<svg width="198" height="46" viewBox="0 0 198 46" fill="none" xmlns="http://www.w3.org/2000/svg">
<path d="M11.624 31.16C9.832 31.16 8.47733 30.6693 7.56 29.688C6.64267 28.6853 6.184 27.352 6.184 25.688C6.184 24.7493 6.32267 23.608 6.6 22.264L8.584 13.112C8.62667 12.9413 8.72267 12.472 8.872 11.704C9.04267 10.936 9.128 10.104 9.128 9.208C9.128 8.696 9.02133 8.312 8.808 8.056C8.616 7.8 8.34933 7.672 8.008 7.672C7.368 7.672 6.62133 7.98133 5.768 8.6C4.91467 9.19733 4.01867 10.1253 3.08 11.384C2.78133 11.7893 2.45067 11.992 2.088 11.992C1.78933 11.992 1.52267 11.8533 1.288 11.576C1.07467 11.2773 0.968 10.9467 0.968 10.584C0.968 9.92267 1.26667 9.176 1.864 8.344C4.04 5.35733 6.58933 3.864 9.512 3.864C10.8133 3.864 11.8267 4.25867 12.552 5.048C13.2987 5.83733 13.672 7 13.672 8.536C13.672 9.624 13.5973 10.6267 13.448 11.544C13.2987 12.4613 13.0427 13.7093 12.68 15.288L11.368 21.144C11.3253 21.336 11.2507 21.6773 11.144 22.168C11.0373 22.6587 10.952 23.128 10.888 23.576C10.824 24.0027 10.792 24.4293 10.792 24.856C10.792 25.5387 10.984 26.0827 11.368 26.488C11.752 26.8933 12.296 27.096 13 27.096C14.28 27.096 15.5707 26.4133 16.872 25.048C18.1947 23.6827 19.4107 21.4853 20.52 18.456C21.6507 15.4053 22.5253 11.512 23.144 6.776C23.2933 5.688 23.5067 4.93067 23.784 4.504C24.0827 4.07733 24.648 3.864 25.48 3.864C26.2267 3.864 26.7813 4.088 27.144 4.536C27.5067 4.984 27.688 5.70933 27.688 6.712C27.688 7.288 27.6133 8.04533 27.464 8.984C27.336 9.92267 27.1333 11.2347 26.856 12.92C26.28 16.184 25.8213 19.1813 25.48 21.912C25.3093 23.1493 25.224 24.0667 25.224 24.664C25.224 25.5387 25.416 26.2107 25.8 26.68C26.2053 27.128 26.7387 27.352 27.4 27.352C28.104 27.352 28.7867 27.1173 29.448 26.648C30.1307 26.1787 30.9307 25.4 31.848 24.312C32.104 24.0133 32.392 23.864 32.712 23.864C32.9893 23.864 33.2027 23.992 33.352 24.248C33.5227 24.504 33.608 24.856 33.608 25.304C33.608 26.136 33.4053 26.7973 33 27.288C31.8907 28.632 30.792 29.6133 29.704 30.232C28.616 30.8507 27.4747 31.16 26.28 31.16C24.5093 31.16 23.1547 30.712 22.216 29.816C21.2773 28.8987 20.808 27.7147 20.808 26.264C20.808 25.4533 20.9787 23.8747 21.32 21.528C20.2533 24.664 18.8987 27.0533 17.256 28.696C15.6347 30.3387 13.7573 31.16 11.624 31.16ZM33.2768 31.16C32.4661 31.16 31.8901 30.7333 31.5488 29.88C31.2288 29.0267 31.0688 27.6613 31.0688 25.784C31.0688 23.0107 31.4634 20.376 32.2528 17.88C32.4448 17.2613 32.7541 16.8133 33.1808 16.536C33.6288 16.2373 34.2474 16.088 35.0368 16.088C35.4634 16.088 35.7621 16.1413 35.9328 16.248C36.1034 16.3547 36.1888 16.5573 36.1888 16.856C36.1888 17.1973 36.0288 17.9653 35.7088 19.16C35.4954 20.0133 35.3248 20.76 35.1968 21.4C35.0688 22.04 34.9621 22.8293 34.8768 23.768C35.5808 21.9333 36.3701 20.44 37.2448 19.288C38.1194 18.136 38.9728 17.3147 39.8048 16.824C40.6581 16.3333 41.4368 16.088 42.1408 16.088C42.8234 16.088 43.3354 16.2693 43.6768 16.632C44.0394 16.9733 44.2208 17.4853 44.2208 18.168C44.2208 18.7227 44.1034 19.768 43.8688 21.304C43.6554 22.6053 43.4848 23.8427 43.3568 25.016C43.2288 26.168 43.1648 27.4587 43.1648 28.888C43.1648 29.6987 42.9941 30.2853 42.6528 30.648C42.3328 30.9893 41.7994 31.16 41.0528 31.16C40.3488 31.16 39.8368 30.9787 39.5168 30.616C39.1968 30.2533 39.0368 29.7093 39.0368 28.984C39.0368 28.1307 39.1861 26.7227 39.4848 24.76C39.7408 23.0533 39.8688 21.9653 39.8688 21.496C39.8688 21.1547 39.7514 20.984 39.5168 20.984C39.2394 20.984 38.8448 21.3467 38.3328 22.072C37.8421 22.776 37.3301 23.7147 36.7968 24.888C36.2848 26.0613 35.8688 27.2987 35.5488 28.6C35.3141 29.6027 35.0368 30.2853 34.7168 30.648C34.4181 30.9893 33.9381 31.16 33.2768 31.16ZM72.0615 23.864C72.3388 23.864 72.5522 23.992 72.7015 24.248C72.8722 24.504 72.9575 24.856 72.9575 25.304C72.9575 26.1573 72.7548 26.8187 72.3495 27.288C71.4322 28.4187 70.4402 29.3467 69.3735 30.072C68.3282 30.7973 67.1335 31.16 65.7895 31.16C64.6588 31.16 63.7415 30.7547 63.0375 29.944C61.8215 30.7333 60.5522 31.1387 59.2295 31.16C58.9522 35.2773 58.3228 38.712 57.3415 41.464C56.3602 44.2373 54.9202 45.624 53.0215 45.624C51.8695 45.624 51.0162 45.208 50.4615 44.376C49.9068 43.544 49.6295 42.392 49.6295 40.92C49.6295 38.8293 50.1095 36.3867 51.0695 33.592C52.0295 30.8187 53.5122 27.7573 55.5175 24.408C55.5175 21.2933 55.4962 19.128 55.4535 17.912C55.4322 17.2933 55.6775 16.8027 56.1895 16.44C56.7015 16.0773 57.3415 15.896 58.1095 15.896C58.5575 15.896 58.8775 15.992 59.0695 16.184C59.2828 16.3547 59.4002 16.7067 59.4215 17.24C59.4215 17.7733 59.4322 18.168 59.4535 18.424C60.1362 17.5707 60.8082 16.9627 61.4695 16.6C62.1308 16.216 62.8348 16.024 63.5815 16.024C64.7762 16.024 65.7468 16.504 66.4935 17.464C67.2615 18.424 67.6455 19.6827 67.6455 21.24C67.6455 22.3707 67.4642 23.4693 67.1015 24.536C66.7388 25.6027 66.2375 26.5733 65.5975 27.448C66.0455 27.576 66.4188 27.64 66.7175 27.64C67.4215 27.64 68.0935 27.384 68.7335 26.872C69.3735 26.36 70.1948 25.5067 71.1975 24.312C71.4535 24.0133 71.7415 23.864 72.0615 23.864ZM59.3895 28.088C60.1575 27.9173 60.8615 27.5013 61.5015 26.84C62.1628 26.1573 62.6855 25.3253 63.0695 24.344C63.4535 23.3413 63.6455 22.296 63.6455 21.208C63.6455 20.568 63.5175 20.088 63.2615 19.768C63.0055 19.4267 62.6642 19.256 62.2375 19.256C61.4695 19.256 60.5415 20.0667 59.4535 21.688C59.4322 22.6267 59.4215 24.0027 59.4215 25.816C59.4215 26.7973 59.4108 27.5547 59.3895 28.088ZM53.2775 42.488C53.8535 42.488 54.3335 41.2293 54.7175 38.712C55.1015 36.216 55.3468 33.1013 55.4535 29.368C54.5362 31.5013 53.8108 33.5387 53.2775 35.48C52.7442 37.4213 52.4775 39.0533 52.4775 40.376C52.4775 41.0587 52.5628 41.5813 52.7335 41.944C52.8828 42.3067 53.0642 42.488 53.2775 42.488ZM72.6518 31.16C71.8411 31.16 71.2651 30.7333 70.9238 29.88C70.6038 29.0267 70.4438 27.6613 70.4438 25.784C70.4438 23.0107 70.8384 20.376 71.6278 17.88C71.8198 17.2613 72.1291 16.8133 72.5558 16.536C73.0038 16.2373 73.6224 16.088 74.4118 16.088C74.8384 16.088 75.1371 16.1413 75.3078 16.248C75.4784 16.3547 75.5638 16.5573 75.5638 16.856C75.5638 17.1973 75.4038 17.9653 75.0838 19.16C74.8704 20.0133 74.6998 20.76 74.5718 21.4C74.4438 22.04 74.3371 22.8293 74.2518 23.768C74.9558 21.9333 75.7451 20.44 76.6198 19.288C77.4944 18.136 78.3478 17.3147 79.1798 16.824C80.0331 16.3333 80.8118 16.088 81.5158 16.088C82.9024 16.088 83.5958 16.7813 83.5958 18.168C83.5958 18.4453 83.4998 19.1173 83.3078 20.184C83.1371 21.0373 83.0518 21.5707 83.0518 21.784C83.0518 22.5307 83.3184 22.904 83.8518 22.904C84.4491 22.904 85.2171 22.4347 86.1558 21.496C86.4331 21.2187 86.7211 21.08 87.0198 21.08C87.2971 21.08 87.5104 21.208 87.6597 21.464C87.8304 21.6987 87.9158 22.0187 87.9158 22.424C87.9158 23.2133 87.7024 23.832 87.2758 24.28C86.6784 24.8987 85.9744 25.432 85.1638 25.88C84.3744 26.3067 83.5318 26.52 82.6358 26.52C81.5051 26.52 80.6411 26.232 80.0438 25.656C79.4678 25.08 79.1798 24.3013 79.1798 23.32C79.1798 23 79.2118 22.68 79.2758 22.36C79.3184 21.9333 79.3398 21.6453 79.3398 21.496C79.3398 21.1547 79.2224 20.984 78.9878 20.984C78.6678 20.984 78.2411 21.3467 77.7078 22.072C77.1958 22.776 76.6838 23.7147 76.1718 24.888C75.6598 26.0613 75.2438 27.2987 74.9238 28.6C74.6891 29.6027 74.4118 30.2853 74.0918 30.648C73.7931 30.9893 73.3131 31.16 72.6518 31.16ZM101.262 21.176C101.54 21.176 101.753 21.3147 101.902 21.592C102.052 21.8693 102.126 22.2213 102.126 22.648C102.126 23.672 101.817 24.28 101.198 24.472C99.9183 24.92 98.5103 25.176 96.9743 25.24C96.5689 27.032 95.7689 28.472 94.5743 29.56C93.3796 30.6267 92.0249 31.16 90.5103 31.16C89.2303 31.16 88.1316 30.8507 87.2143 30.232C86.3183 29.6133 85.6356 28.792 85.1663 27.768C84.6969 26.744 84.4622 25.6347 84.4622 24.44C84.4622 22.8187 84.7716 21.3787 85.3903 20.12C86.0089 18.84 86.8623 17.848 87.9503 17.144C89.0383 16.4187 90.2436 16.056 91.5663 16.056C93.1876 16.056 94.4889 16.6213 95.4703 17.752C96.4729 18.8613 97.0596 20.2373 97.2303 21.88C98.2329 21.816 99.4276 21.6027 100.814 21.24C100.985 21.1973 101.134 21.176 101.262 21.176ZM90.7663 27.768C91.4489 27.768 92.0356 27.4907 92.5263 26.936C93.0383 26.3813 93.3796 25.5813 93.5503 24.536C92.8889 24.088 92.3769 23.5013 92.0143 22.776C91.6729 22.0507 91.5023 21.2827 91.5023 20.472C91.5023 20.1307 91.5343 19.7893 91.5983 19.448H91.4383C90.5849 19.448 89.8703 19.864 89.2943 20.696C88.7396 21.5067 88.4623 22.6587 88.4623 24.152C88.4623 25.3253 88.6863 26.2213 89.1343 26.84C89.6036 27.4587 90.1476 27.768 90.7663 27.768ZM117.556 23.864C117.833 23.864 118.046 23.992 118.196 24.248C118.366 24.504 118.452 24.856 118.452 25.304C118.452 26.1573 118.249 26.8187 117.844 27.288C116.969 28.3547 116.009 29.272 114.964 30.04C113.918 30.7867 112.884 31.16 111.86 31.16C110.238 31.16 109.001 30.2107 108.148 28.312C107.252 29.4427 106.462 30.2 105.78 30.584C105.118 30.968 104.34 31.16 103.444 31.16C102.142 31.16 101.065 30.68 100.212 29.72C99.3798 28.7387 98.9638 27.4693 98.9638 25.912C98.9638 24.2053 99.3264 22.6267 100.052 21.176C100.777 19.704 101.769 18.5093 103.028 17.592C104.308 16.6533 105.737 16.0987 107.316 15.928C107.721 11.7893 108.489 8.25867 109.62 5.336C110.772 2.392 112.276 0.919998 114.132 0.919998C115.049 0.919998 115.806 1.336 116.404 2.168C117.022 3 117.332 4.25867 117.332 5.944C117.332 8.33333 116.745 11.128 115.572 14.328C114.398 17.528 112.83 20.8133 110.868 24.184C110.953 25.4213 111.134 26.3067 111.412 26.84C111.71 27.3733 112.084 27.64 112.532 27.64C113.108 27.64 113.694 27.384 114.292 26.872C114.889 26.36 115.689 25.5067 116.692 24.312C116.948 24.0133 117.236 23.864 117.556 23.864ZM113.78 4.056C113.374 4.056 112.969 4.78133 112.564 6.232C112.158 7.66133 111.806 9.53867 111.508 11.864C111.23 14.1893 111.028 16.6213 110.9 19.16C113.289 13.9547 114.484 9.77333 114.484 6.616C114.484 5.80533 114.409 5.176 114.26 4.728C114.132 4.28 113.972 4.056 113.78 4.056ZM104.564 27.928C104.969 27.928 105.374 27.768 105.78 27.448C106.185 27.1067 106.697 26.488 107.316 25.592C107.102 24.44 106.996 23.1493 106.996 21.72C106.996 21.208 107.017 20.376 107.06 19.224C105.886 19.5867 104.905 20.376 104.116 21.592C103.348 22.7867 102.964 24.12 102.964 25.592C102.964 27.1493 103.497 27.928 104.564 27.928ZM119.113 31.16C118.153 31.16 117.363 30.7227 116.745 29.848C116.147 28.952 115.849 27.8427 115.849 26.52C115.849 24.92 115.955 23.4587 116.169 22.136C116.382 20.792 116.734 19.3733 117.225 17.88C117.438 17.24 117.737 16.7813 118.121 16.504C118.505 16.2267 119.113 16.088 119.945 16.088C120.414 16.088 120.734 16.1627 120.905 16.312C121.097 16.4613 121.193 16.6853 121.193 16.984C121.193 17.1547 121.075 17.7307 120.841 18.712C120.627 19.5013 120.457 20.216 120.329 20.856C119.902 23.096 119.689 24.5893 119.689 25.336C119.689 25.784 119.742 26.104 119.849 26.296C119.955 26.4667 120.126 26.552 120.361 26.552C120.681 26.552 121.075 26.232 121.545 25.592C122.035 24.952 122.547 23.9813 123.081 22.68C123.635 21.3787 124.169 19.7787 124.681 17.88C124.851 17.24 125.107 16.7813 125.449 16.504C125.811 16.2267 126.345 16.088 127.049 16.088C127.539 16.088 127.881 16.152 128.073 16.28C128.265 16.3867 128.361 16.6 128.361 16.92C128.361 17.4533 128.094 18.9147 127.561 21.304C126.963 24.0347 126.665 25.72 126.665 26.36C126.665 26.7653 126.75 27.0853 126.921 27.32C127.091 27.5333 127.315 27.64 127.593 27.64C128.019 27.64 128.521 27.384 129.097 26.872C129.694 26.3387 130.483 25.4853 131.465 24.312C131.721 24.0133 132.009 23.864 132.329 23.864C132.606 23.864 132.819 23.992 132.969 24.248C133.139 24.504 133.225 24.856 133.225 25.304C133.225 26.1573 133.022 26.8187 132.617 27.288C131.699 28.4187 130.707 29.3467 129.641 30.072C128.595 30.7973 127.401 31.16 126.057 31.16C125.033 31.16 124.275 30.7653 123.785 29.976C123.315 29.1867 123.081 28.0773 123.081 26.648C122.718 28.0987 122.174 29.2187 121.449 30.008C120.723 30.776 119.945 31.16 119.113 31.16ZM136.742 31.16C134.651 31.16 133.019 30.5733 131.846 29.4C130.694 28.2053 130.118 26.6373 130.118 24.696C130.118 22.968 130.459 21.4533 131.142 20.152C131.824 18.8507 132.71 17.848 133.798 17.144C134.886 16.44 136.027 16.088 137.222 16.088C138.395 16.088 139.302 16.44 139.942 17.144C140.603 17.8267 140.934 18.712 140.934 19.8C140.934 20.696 140.731 21.4533 140.326 22.072C139.942 22.6907 139.43 23 138.79 23C138.384 23 138.054 22.904 137.798 22.712C137.563 22.52 137.446 22.2533 137.446 21.912C137.446 21.7627 137.467 21.592 137.51 21.4C137.552 21.208 137.584 21.0693 137.606 20.984C137.712 20.664 137.766 20.3653 137.766 20.088C137.766 19.8107 137.691 19.5973 137.542 19.448C137.414 19.2987 137.222 19.224 136.966 19.224C136.475 19.224 136.016 19.448 135.59 19.896C135.163 20.3227 134.822 20.9093 134.566 21.656C134.31 22.4027 134.182 23.224 134.182 24.12C134.182 26.5947 135.259 27.832 137.414 27.832C138.288 27.832 139.227 27.544 140.23 26.968C141.254 26.3707 142.256 25.4853 143.238 24.312C143.494 24.0133 143.782 23.864 144.102 23.864C144.379 23.864 144.592 23.992 144.742 24.248C144.912 24.504 144.998 24.856 144.998 25.304C144.998 26.1147 144.795 26.776 144.39 27.288C143.387 28.5253 142.182 29.4853 140.774 30.168C139.387 30.8293 138.043 31.16 136.742 31.16ZM156.839 23.864C157.117 23.864 157.33 23.992 157.479 24.248C157.65 24.504 157.735 24.856 157.735 25.304C157.735 26.1573 157.533 26.8187 157.127 27.288C156.21 28.4187 155.207 29.3467 154.119 30.072C153.031 30.7973 151.783 31.16 150.375 31.16C146.023 31.16 143.847 28.0987 143.847 21.976C143.847 21.0373 143.879 20.088 143.943 19.128H142.695C142.055 19.128 141.618 19.0107 141.383 18.776C141.17 18.5413 141.063 18.168 141.063 17.656C141.063 16.4613 141.543 15.864 142.503 15.864H144.327C144.69 13.5173 145.245 11.3733 145.991 9.432C146.738 7.49067 147.634 5.944 148.679 4.792C149.746 3.64 150.887 3.064 152.103 3.064C152.999 3.064 153.703 3.45867 154.215 4.248C154.727 5.03733 154.983 6.02933 154.983 7.224C154.983 10.5307 153.597 13.4107 150.823 15.864H154.407C154.749 15.864 154.994 15.9387 155.143 16.088C155.293 16.2373 155.367 16.5147 155.367 16.92C155.367 18.392 154.162 19.128 151.751 19.128H147.847C147.805 20.1947 147.783 21.0267 147.783 21.624C147.783 23.8427 148.039 25.4 148.551 26.296C149.085 27.192 149.917 27.64 151.047 27.64C151.965 27.64 152.775 27.3627 153.479 26.808C154.183 26.2533 155.015 25.4213 155.975 24.312C156.231 24.0133 156.519 23.864 156.839 23.864ZM151.239 6.136C150.919 6.136 150.557 6.54133 150.151 7.352C149.767 8.14133 149.394 9.25067 149.031 10.68C148.69 12.088 148.402 13.656 148.167 15.384C149.426 14.296 150.365 13.08 150.983 11.736C151.623 10.3707 151.943 9.13333 151.943 8.024C151.943 6.76533 151.709 6.136 151.239 6.136ZM169.402 23.864C169.679 23.864 169.892 23.992 170.042 24.248C170.212 24.504 170.298 24.856 170.298 25.304C170.298 26.1573 170.095 26.8187 169.69 27.288C168.9 28.248 167.78 29.1333 166.33 29.944C164.9 30.7547 163.364 31.16 161.722 31.16C159.482 31.16 157.743 30.552 156.506 29.336C155.268 28.12 154.65 26.456 154.65 24.344C154.65 22.872 154.959 21.5067 155.578 20.248C156.196 18.968 157.05 17.9547 158.138 17.208C159.247 16.4613 160.495 16.088 161.882 16.088C163.119 16.088 164.111 16.4613 164.858 17.208C165.604 17.9333 165.978 18.9253 165.978 20.184C165.978 21.656 165.444 22.9253 164.378 23.992C163.332 25.0373 161.551 25.8693 159.034 26.488C159.567 27.4693 160.58 27.96 162.074 27.96C163.034 27.96 164.122 27.6293 165.338 26.968C166.575 26.2853 167.642 25.4 168.538 24.312C168.794 24.0133 169.082 23.864 169.402 23.864ZM161.338 19.224C160.548 19.224 159.876 19.6827 159.322 20.6C158.788 21.5173 158.522 22.6267 158.522 23.928V23.992C159.78 23.6933 160.772 23.2453 161.498 22.648C162.223 22.0507 162.586 21.3573 162.586 20.568C162.586 20.1627 162.468 19.8427 162.234 19.608C162.02 19.352 161.722 19.224 161.338 19.224ZM170.956 31.16C169.996 31.16 169.207 30.7227 168.588 29.848C167.991 28.952 167.692 27.8427 167.692 26.52C167.692 24.92 167.799 23.4587 168.012 22.136C168.226 20.792 168.578 19.3733 169.068 17.88C169.282 17.24 169.58 16.7813 169.964 16.504C170.348 16.2267 170.956 16.088 171.788 16.088C172.258 16.088 172.578 16.1627 172.748 16.312C172.94 16.4613 173.036 16.6853 173.036 16.984C173.036 17.1547 172.919 17.7307 172.684 18.712C172.471 19.5013 172.3 20.216 172.172 20.856C171.746 23.096 171.532 24.5893 171.532 25.336C171.532 25.784 171.586 26.104 171.692 26.296C171.799 26.4667 171.97 26.552 172.204 26.552C172.524 26.552 172.919 26.232 173.388 25.592C173.879 24.952 174.391 23.9813 174.924 22.68C175.479 21.3787 176.012 19.7787 176.524 17.88C176.695 17.24 176.951 16.7813 177.292 16.504C177.655 16.2267 178.188 16.088 178.892 16.088C179.383 16.088 179.724 16.152 179.916 16.28C180.108 16.3867 180.204 16.6 180.204 16.92C180.204 17.4533 179.938 18.9147 179.404 21.304C178.807 24.0347 178.508 25.72 178.508 26.36C178.508 26.7653 178.594 27.0853 178.764 27.32C178.935 27.5333 179.159 27.64 179.436 27.64C179.863 27.64 180.364 27.384 180.94 26.872C181.538 26.3387 182.327 25.4853 183.308 24.312C183.564 24.0133 183.852 23.864 184.172 23.864C184.45 23.864 184.663 23.992 184.812 24.248C184.983 24.504 185.068 24.856 185.068 25.304C185.068 26.1573 184.866 26.8187 184.46 27.288C183.543 28.4187 182.551 29.3467 181.484 30.072C180.439 30.7973 179.244 31.16 177.9 31.16C176.876 31.16 176.119 30.7653 175.628 29.976C175.159 29.1867 174.924 28.0773 174.924 26.648C174.562 28.0987 174.018 29.2187 173.292 30.008C172.567 30.776 171.788 31.16 170.956 31.16ZM195.402 20.472C195.871 20.472 196.266 20.6427 196.586 20.984C196.927 21.304 197.097 21.7093 197.097 22.2C197.097 22.4773 197.034 22.776 196.906 23.096C196.564 23.8853 196.084 24.5467 195.466 25.08C194.847 25.6133 194.164 25.88 193.418 25.88C192.82 25.88 192.308 25.6667 191.882 25.24C191.476 24.8133 191.274 24.2373 191.274 23.512C191.274 23.1067 191.295 22.6693 191.338 22.2C191.38 21.8587 191.402 21.624 191.402 21.496C191.402 21.3253 191.359 21.1973 191.274 21.112C191.21 21.0267 191.124 20.984 191.018 20.984C190.719 20.984 190.314 21.3467 189.802 22.072C189.29 22.776 188.778 23.7147 188.266 24.888C187.754 26.0613 187.338 27.2987 187.018 28.6C186.783 29.624 186.516 30.3067 186.218 30.648C185.919 30.9893 185.428 31.16 184.746 31.16C183.935 31.16 183.359 30.7333 183.018 29.88C182.698 29.0267 182.538 27.6613 182.538 25.784C182.538 23.0107 182.932 20.376 183.722 17.88C183.914 17.2613 184.223 16.8133 184.65 16.536C185.098 16.2373 185.716 16.088 186.506 16.088C186.932 16.088 187.231 16.1413 187.402 16.248C187.572 16.3547 187.658 16.5573 187.658 16.856C187.658 17.1973 187.498 17.9653 187.178 19.16C186.964 20.0133 186.794 20.76 186.666 21.4C186.538 22.04 186.431 22.8293 186.346 23.768C187.05 21.9333 187.839 20.44 188.714 19.288C189.588 18.136 190.442 17.3147 191.274 16.824C192.106 16.3333 192.863 16.088 193.546 16.088C194.164 16.088 194.634 16.2693 194.954 16.632C195.295 16.9733 195.466 17.4853 195.466 18.168C195.466 18.5733 195.348 19.3413 195.114 20.472H195.402Z" fill="#D93D04"/>
</svg>
