<svg width="209" height="29" viewBox="0 0 209 29" fill="none" xmlns="http://www.w3.org/2000/svg">
<path d="M11.624 28.16C9.832 28.16 8.47733 27.6693 7.56 26.688C6.64267 25.6853 6.184 24.352 6.184 22.688C6.184 21.7493 6.32267 20.608 6.6 19.264L8.584 10.112C8.62667 9.94133 8.72267 9.472 8.872 8.704C9.04267 7.936 9.128 7.104 9.128 6.208C9.128 5.696 9.02133 5.312 8.808 5.056C8.616 4.8 8.34933 4.672 8.008 4.672C7.368 4.672 6.62133 4.98133 5.768 5.6C4.91467 6.19733 4.01867 7.12533 3.08 8.384C2.78133 8.78933 2.45067 8.992 2.088 8.992C1.78933 8.992 1.52267 8.85333 1.288 8.576C1.07467 8.27733 0.968 7.94667 0.968 7.584C0.968 6.92267 1.26667 6.176 1.864 5.344C4.04 2.35733 6.58933 0.863998 9.512 0.863998C10.8133 0.863998 11.8267 1.25867 12.552 2.048C13.2987 2.83733 13.672 4 13.672 5.536C13.672 6.624 13.5973 7.62667 13.448 8.544C13.2987 9.46133 13.0427 10.7093 12.68 12.288L11.368 18.144C11.3253 18.336 11.2507 18.6773 11.144 19.168C11.0373 19.6587 10.952 20.128 10.888 20.576C10.824 21.0027 10.792 21.4293 10.792 21.856C10.792 22.5387 10.984 23.0827 11.368 23.488C11.752 23.8933 12.296 24.096 13 24.096C14.28 24.096 15.5707 23.4133 16.872 22.048C18.1947 20.6827 19.4107 18.4853 20.52 15.456C21.6507 12.4053 22.5253 8.512 23.144 3.776C23.2933 2.688 23.5067 1.93067 23.784 1.504C24.0827 1.07733 24.648 0.863998 25.48 0.863998C26.2267 0.863998 26.7813 1.088 27.144 1.536C27.5067 1.984 27.688 2.70933 27.688 3.712C27.688 4.288 27.6133 5.04533 27.464 5.984C27.336 6.92267 27.1333 8.23467 26.856 9.92C26.28 13.184 25.8213 16.1813 25.48 18.912C25.3093 20.1493 25.224 21.0667 25.224 21.664C25.224 22.5387 25.416 23.2107 25.8 23.68C26.2053 24.128 26.7387 24.352 27.4 24.352C28.104 24.352 28.7867 24.1173 29.448 23.648C30.1307 23.1787 30.9307 22.4 31.848 21.312C32.104 21.0133 32.392 20.864 32.712 20.864C32.9893 20.864 33.2027 20.992 33.352 21.248C33.5227 21.504 33.608 21.856 33.608 22.304C33.608 23.136 33.4053 23.7973 33 24.288C31.8907 25.632 30.792 26.6133 29.704 27.232C28.616 27.8507 27.4747 28.16 26.28 28.16C24.5093 28.16 23.1547 27.712 22.216 26.816C21.2773 25.8987 20.808 24.7147 20.808 23.264C20.808 22.4533 20.9787 20.8747 21.32 18.528C20.2533 21.664 18.8987 24.0533 17.256 25.696C15.6347 27.3387 13.7573 28.16 11.624 28.16ZM33.2768 28.16C32.4661 28.16 31.8901 27.7333 31.5488 26.88C31.2288 26.0267 31.0688 24.6613 31.0688 22.784C31.0688 20.0107 31.4634 17.376 32.2528 14.88C32.4448 14.2613 32.7541 13.8133 33.1808 13.536C33.6288 13.2373 34.2474 13.088 35.0368 13.088C35.4634 13.088 35.7621 13.1413 35.9328 13.248C36.1034 13.3547 36.1888 13.5573 36.1888 13.856C36.1888 14.1973 36.0288 14.9653 35.7088 16.16C35.4954 17.0133 35.3248 17.76 35.1968 18.4C35.0688 19.04 34.9621 19.8293 34.8768 20.768C35.5808 18.9333 36.3701 17.44 37.2448 16.288C38.1194 15.136 38.9728 14.3147 39.8048 13.824C40.6581 13.3333 41.4368 13.088 42.1408 13.088C43.5274 13.088 44.2208 13.7813 44.2208 15.168C44.2208 16 43.9861 17.504 43.5168 19.68C43.1114 21.536 42.9088 22.7627 42.9088 23.36C42.9088 24.2133 43.2181 24.64 43.8368 24.64C44.2634 24.64 44.7648 24.384 45.3408 23.872C45.9381 23.3387 46.7274 22.4853 47.7088 21.312C47.9648 21.0133 48.2528 20.864 48.5728 20.864C48.8501 20.864 49.0634 20.992 49.2128 21.248C49.3834 21.504 49.4688 21.856 49.4688 22.304C49.4688 23.1573 49.2661 23.8187 48.8608 24.288C47.9434 25.4187 46.9514 26.3467 45.8848 27.072C44.8394 27.7973 43.6448 28.16 42.3008 28.16C41.2128 28.16 40.3914 27.8507 39.8368 27.232C39.2821 26.592 39.0048 25.6747 39.0048 24.48C39.0048 23.8827 39.1541 22.816 39.4528 21.28C39.7301 19.936 39.8688 19.008 39.8688 18.496C39.8688 18.1547 39.7514 17.984 39.5168 17.984C39.2394 17.984 38.8448 18.3467 38.3328 19.072C37.8421 19.776 37.3301 20.7147 36.7968 21.888C36.2848 23.0613 35.8688 24.2987 35.5488 25.6C35.3141 26.6027 35.0368 27.2853 34.7168 27.648C34.4181 27.9893 33.9381 28.16 33.2768 28.16ZM58.3358 21.824C58.6131 21.824 58.8264 21.952 58.9758 22.208C59.1464 22.464 59.2318 22.816 59.2318 23.264C59.2318 24.032 59.0504 24.6933 58.6878 25.248C58.0904 26.1653 57.3011 26.88 56.3198 27.392C55.3598 27.904 54.2078 28.16 52.8638 28.16C50.8158 28.16 49.2264 27.552 48.0958 26.336C46.9651 25.0987 46.3997 23.4347 46.3997 21.344C46.3997 19.872 46.7091 18.5067 47.3278 17.248C47.9464 15.968 48.7998 14.9547 49.8878 14.208C50.9971 13.4613 52.2451 13.088 53.6318 13.088C54.8691 13.088 55.8611 13.4613 56.6078 14.208C57.3544 14.9333 57.7278 15.9253 57.7278 17.184C57.7278 18.656 57.1944 19.9253 56.1278 20.992C55.0824 22.0373 53.2904 22.8693 50.7518 23.488C51.2638 24.4693 52.1278 24.96 53.3438 24.96C54.2184 24.96 54.9331 24.7573 55.4878 24.352C56.0638 23.9467 56.7251 23.264 57.4718 22.304C57.7278 21.984 58.0158 21.824 58.3358 21.824ZM53.0878 16.224C52.2984 16.224 51.6264 16.6827 51.0718 17.6C50.5384 18.5173 50.2718 19.6267 50.2718 20.928V20.992C51.5304 20.6933 52.5224 20.2453 53.2478 19.648C53.9731 19.0507 54.3358 18.3573 54.3358 17.568C54.3358 17.1627 54.2184 16.8427 53.9838 16.608C53.7704 16.352 53.4718 16.224 53.0878 16.224ZM72.4408 28.16C71.1181 28.16 70.0621 27.68 69.2728 26.72C68.4834 25.76 68.0888 24.5013 68.0888 22.944C68.0888 21.2373 68.4834 19.6267 69.2728 18.112C70.0621 16.576 71.1074 15.3493 72.4088 14.432C73.7314 13.4933 75.1288 13.024 76.6008 13.024C77.0701 13.024 77.3794 13.12 77.5288 13.312C77.6994 13.4827 77.8381 13.8027 77.9448 14.272C78.3928 14.1867 78.8621 14.144 79.3528 14.144C80.3981 14.144 80.9208 14.5173 80.9208 15.264C80.9208 15.712 80.7608 16.7787 80.4408 18.464C79.9501 20.9173 79.7048 22.624 79.7048 23.584C79.7048 23.904 79.7794 24.16 79.9288 24.352C80.0994 24.544 80.3128 24.64 80.5688 24.64C80.9741 24.64 81.4648 24.384 82.0408 23.872C82.6168 23.3387 83.3954 22.4853 84.3768 21.312C84.6328 21.0133 84.9208 20.864 85.2408 20.864C85.5181 20.864 85.7314 20.992 85.8808 21.248C86.0514 21.504 86.1368 21.856 86.1368 22.304C86.1368 23.1573 85.9341 23.8187 85.5288 24.288C84.6541 25.376 83.7261 26.2933 82.7448 27.04C81.7634 27.7867 80.8141 28.16 79.8968 28.16C79.1928 28.16 78.5421 27.9253 77.9448 27.456C77.3688 26.9653 76.9314 26.304 76.6328 25.472C75.5234 27.264 74.1261 28.16 72.4408 28.16ZM73.5928 24.928C74.0621 24.928 74.5101 24.6507 74.9368 24.096C75.3634 23.5413 75.6728 22.8053 75.8648 21.888L77.0488 16C76.1528 16.0213 75.3208 16.3627 74.5528 17.024C73.8061 17.664 73.2088 18.5173 72.7608 19.584C72.3128 20.6507 72.0888 21.7813 72.0888 22.976C72.0888 23.6373 72.2168 24.128 72.4728 24.448C72.7501 24.768 73.1234 24.928 73.5928 24.928ZM89.488 28.864C88.3787 28.864 87.5253 28.608 86.928 28.096C86.352 27.584 86.064 27.008 86.064 26.368C86.064 25.8133 86.2667 25.3333 86.672 24.928C87.0773 24.5227 87.6747 24.32 88.464 24.32C88.7413 24.32 89.0613 24.352 89.424 24.416C89.808 24.4587 90.096 24.4907 90.288 24.512C90.2667 23.9573 90.1387 23.4347 89.904 22.944C89.6907 22.4533 89.4133 21.984 89.072 21.536C88.7307 21.0667 88.4107 20.6613 88.112 20.32C87.4507 21.5787 86.7893 22.624 86.128 23.456C85.488 24.288 84.784 25.0773 84.016 25.824C83.632 26.208 83.2267 26.4 82.8 26.4C82.4587 26.4 82.1813 26.2827 81.968 26.048C81.7547 25.792 81.648 25.4827 81.648 25.12C81.648 24.6933 81.7973 24.2987 82.096 23.936L82.512 23.424C83.6853 21.9733 84.5707 20.7787 85.168 19.84C85.5307 19.2213 85.9573 18.4 86.448 17.376C86.9387 16.3307 87.4187 15.2533 87.888 14.144C88.2933 13.2053 89.136 12.736 90.416 12.736C91.0133 12.736 91.4293 12.7893 91.664 12.896C91.8987 13.0027 92.016 13.1733 92.016 13.408C92.016 13.536 91.9733 13.7387 91.888 14.016C91.8027 14.2933 91.6853 14.5707 91.536 14.848C91.152 15.616 90.96 16.2667 90.96 16.8C90.96 17.12 91.0667 17.472 91.28 17.856C91.5147 18.24 91.8667 18.72 92.336 19.296C93.0187 20.192 93.5307 20.96 93.872 21.6C94.2347 22.2187 94.416 22.9013 94.416 23.648C94.416 23.8613 94.3947 24.16 94.352 24.544C95.3973 24.1387 96.624 23.0613 98.032 21.312C98.288 21.0133 98.576 20.864 98.896 20.864C99.1733 20.864 99.3867 20.992 99.536 21.248C99.7067 21.504 99.792 21.856 99.792 22.304C99.792 23.1147 99.5893 23.776 99.184 24.288C98.1173 25.6107 97.0933 26.5173 96.112 27.008C95.152 27.4773 93.9573 27.7333 92.528 27.776C91.6747 28.5013 90.6613 28.864 89.488 28.864ZM103.144 28.864C102.035 28.864 101.182 28.608 100.584 28.096C100.008 27.584 99.7203 27.008 99.7203 26.368C99.7203 25.8133 99.9229 25.3333 100.328 24.928C100.734 24.5227 101.331 24.32 102.12 24.32C102.398 24.32 102.718 24.352 103.08 24.416C103.464 24.4587 103.752 24.4907 103.944 24.512C103.923 23.9573 103.795 23.4347 103.56 22.944C103.347 22.4533 103.07 21.984 102.728 21.536C102.387 21.0667 102.067 20.6613 101.768 20.32C101.107 21.5787 100.446 22.624 99.7843 23.456C99.1443 24.288 98.4403 25.0773 97.6723 25.824C97.2883 26.208 96.8829 26.4 96.4563 26.4C96.1149 26.4 95.8376 26.2827 95.6242 26.048C95.4109 25.792 95.3042 25.4827 95.3042 25.12C95.3042 24.6933 95.4536 24.2987 95.7523 23.936L96.1683 23.424C97.3416 21.9733 98.2269 20.7787 98.8243 19.84C99.1869 19.2213 99.6136 18.4 100.104 17.376C100.595 16.3307 101.075 15.2533 101.544 14.144C101.95 13.2053 102.792 12.736 104.072 12.736C104.67 12.736 105.086 12.7893 105.32 12.896C105.555 13.0027 105.672 13.1733 105.672 13.408C105.672 13.536 105.63 13.7387 105.544 14.016C105.459 14.2933 105.342 14.5707 105.192 14.848C104.808 15.616 104.616 16.2667 104.616 16.8C104.616 17.12 104.723 17.472 104.936 17.856C105.171 18.24 105.523 18.72 105.992 19.296C106.675 20.192 107.187 20.96 107.528 21.6C107.891 22.2187 108.072 22.9013 108.072 23.648C108.072 23.8613 108.051 24.16 108.008 24.544C109.054 24.1387 110.28 23.0613 111.688 21.312C111.944 21.0133 112.232 20.864 112.552 20.864C112.83 20.864 113.043 20.992 113.192 21.248C113.363 21.504 113.448 21.856 113.448 22.304C113.448 23.1147 113.246 23.776 112.84 24.288C111.774 25.6107 110.75 26.5173 109.768 27.008C108.808 27.4773 107.614 27.7333 106.184 27.776C105.331 28.5013 104.318 28.864 103.144 28.864ZM127.169 18.176C127.446 18.176 127.659 18.3147 127.809 18.592C127.958 18.8693 128.033 19.2213 128.033 19.648C128.033 20.672 127.723 21.28 127.105 21.472C125.825 21.92 124.417 22.176 122.881 22.24C122.475 24.032 121.675 25.472 120.481 26.56C119.286 27.6267 117.931 28.16 116.417 28.16C115.137 28.16 114.038 27.8507 113.121 27.232C112.225 26.6133 111.542 25.792 111.073 24.768C110.603 23.744 110.368 22.6347 110.368 21.44C110.368 19.8187 110.678 18.3787 111.297 17.12C111.915 15.84 112.769 14.848 113.857 14.144C114.945 13.4187 116.15 13.056 117.473 13.056C119.094 13.056 120.395 13.6213 121.377 14.752C122.379 15.8613 122.966 17.2373 123.137 18.88C124.139 18.816 125.334 18.6027 126.721 18.24C126.891 18.1973 127.041 18.176 127.169 18.176ZM116.673 24.768C117.355 24.768 117.942 24.4907 118.433 23.936C118.945 23.3813 119.286 22.5813 119.457 21.536C118.795 21.088 118.283 20.5013 117.921 19.776C117.579 19.0507 117.409 18.2827 117.409 17.472C117.409 17.1307 117.441 16.7893 117.505 16.448H117.345C116.491 16.448 115.777 16.864 115.201 17.696C114.646 18.5067 114.369 19.6587 114.369 21.152C114.369 22.3253 114.593 23.2213 115.041 23.84C115.51 24.4587 116.054 24.768 116.673 24.768ZM131.398 28.16C129.307 28.16 127.675 27.5733 126.502 26.4C125.35 25.2053 124.774 23.6373 124.774 21.696C124.774 19.968 125.115 18.4533 125.798 17.152C126.481 15.8507 127.366 14.848 128.454 14.144C129.542 13.44 130.683 13.088 131.878 13.088C133.051 13.088 133.958 13.44 134.598 14.144C135.259 14.8267 135.59 15.712 135.59 16.8C135.59 17.696 135.387 18.4533 134.982 19.072C134.598 19.6907 134.086 20 133.446 20C133.041 20 132.71 19.904 132.454 19.712C132.219 19.52 132.102 19.2533 132.102 18.912C132.102 18.7627 132.123 18.592 132.166 18.4C132.209 18.208 132.241 18.0693 132.262 17.984C132.369 17.664 132.422 17.3653 132.422 17.088C132.422 16.8107 132.347 16.5973 132.198 16.448C132.07 16.2987 131.878 16.224 131.622 16.224C131.131 16.224 130.673 16.448 130.246 16.896C129.819 17.3227 129.478 17.9093 129.222 18.656C128.966 19.4027 128.838 20.224 128.838 21.12C128.838 23.5947 129.915 24.832 132.07 24.832C132.945 24.832 133.883 24.544 134.886 23.968C135.91 23.3707 136.913 22.4853 137.894 21.312C138.15 21.0133 138.438 20.864 138.758 20.864C139.035 20.864 139.249 20.992 139.398 21.248C139.569 21.504 139.654 21.856 139.654 22.304C139.654 23.1147 139.451 23.776 139.046 24.288C138.043 25.5253 136.838 26.4853 135.43 27.168C134.043 27.8293 132.699 28.16 131.398 28.16ZM141.259 10.976C140.363 10.976 139.691 10.7733 139.243 10.368C138.795 9.94133 138.571 9.35467 138.571 8.608C138.571 7.86133 138.859 7.24267 139.435 6.752C140.033 6.24 140.769 5.984 141.643 5.984C142.433 5.984 143.073 6.176 143.563 6.56C144.054 6.944 144.299 7.488 144.299 8.192C144.299 9.04533 144.022 9.728 143.467 10.24C142.913 10.7307 142.177 10.976 141.259 10.976ZM141.003 28.16C139.617 28.16 138.603 27.6693 137.963 26.688C137.345 25.7067 137.035 24.4053 137.035 22.784C137.035 21.824 137.153 20.5973 137.387 19.104C137.643 17.5893 137.963 16.1813 138.347 14.88C138.539 14.1973 138.795 13.728 139.115 13.472C139.435 13.216 139.947 13.088 140.651 13.088C141.739 13.088 142.283 13.4507 142.283 14.176C142.283 14.7093 142.081 15.9467 141.675 17.888C141.163 20.2347 140.907 21.824 140.907 22.656C140.907 23.296 140.993 23.7867 141.163 24.128C141.334 24.4693 141.622 24.64 142.027 24.64C142.411 24.64 142.891 24.3733 143.467 23.84C144.043 23.3067 144.811 22.464 145.771 21.312C146.027 21.0133 146.315 20.864 146.635 20.864C146.913 20.864 147.126 20.992 147.275 21.248C147.446 21.504 147.531 21.856 147.531 22.304C147.531 23.1573 147.329 23.8187 146.923 24.288C144.811 26.8693 142.838 28.16 141.003 28.16ZM148.878 28.16C147.556 28.16 146.5 27.68 145.71 26.72C144.921 25.76 144.526 24.5013 144.526 22.944C144.526 21.2373 144.921 19.6267 145.71 18.112C146.5 16.576 147.545 15.3493 148.846 14.432C150.169 13.4933 151.566 13.024 153.038 13.024C153.508 13.024 153.817 13.12 153.966 13.312C154.137 13.4827 154.276 13.8027 154.382 14.272C154.83 14.1867 155.3 14.144 155.79 14.144C156.836 14.144 157.358 14.5173 157.358 15.264C157.358 15.712 157.198 16.7787 156.878 18.464C156.388 20.9173 156.142 22.624 156.142 23.584C156.142 23.904 156.217 24.16 156.366 24.352C156.537 24.544 156.75 24.64 157.006 24.64C157.412 24.64 157.902 24.384 158.478 23.872C159.054 23.3387 159.833 22.4853 160.814 21.312C161.07 21.0133 161.358 20.864 161.678 20.864C161.956 20.864 162.169 20.992 162.318 21.248C162.489 21.504 162.574 21.856 162.574 22.304C162.574 23.1573 162.372 23.8187 161.966 24.288C161.092 25.376 160.164 26.2933 159.182 27.04C158.201 27.7867 157.252 28.16 156.334 28.16C155.63 28.16 154.98 27.9253 154.382 27.456C153.806 26.9653 153.369 26.304 153.07 25.472C151.961 27.264 150.564 28.16 148.878 28.16ZM150.03 24.928C150.5 24.928 150.948 24.6507 151.374 24.096C151.801 23.5413 152.11 22.8053 152.302 21.888L153.486 16C152.59 16.0213 151.758 16.3627 150.99 17.024C150.244 17.664 149.646 18.5173 149.198 19.584C148.75 20.6507 148.526 21.7813 148.526 22.976C148.526 23.6373 148.654 24.128 148.91 24.448C149.188 24.768 149.561 24.928 150.03 24.928ZM174.246 20.864C174.523 20.864 174.736 20.992 174.885 21.248C175.056 21.504 175.142 21.856 175.142 22.304C175.142 23.1573 174.939 23.8187 174.534 24.288C173.616 25.4187 172.614 26.3467 171.526 27.072C170.438 27.7973 169.19 28.16 167.782 28.16C163.43 28.16 161.254 25.0987 161.254 18.976C161.254 18.0373 161.286 17.088 161.35 16.128H160.102C159.462 16.128 159.024 16.0107 158.79 15.776C158.576 15.5413 158.47 15.168 158.47 14.656C158.47 13.4613 158.95 12.864 159.91 12.864H161.734C162.096 10.5173 162.651 8.37333 163.398 6.432C164.144 4.49067 165.04 2.944 166.086 1.792C167.152 0.639999 168.294 0.0639992 169.51 0.0639992C170.406 0.0639992 171.11 0.458666 171.622 1.248C172.134 2.03733 172.39 3.02933 172.39 4.224C172.39 7.53067 171.003 10.4107 168.23 12.864H171.814C172.155 12.864 172.4 12.9387 172.55 13.088C172.699 13.2373 172.774 13.5147 172.774 13.92C172.774 15.392 171.568 16.128 169.158 16.128H165.254C165.211 17.1947 165.19 18.0267 165.19 18.624C165.19 20.8427 165.446 22.4 165.958 23.296C166.491 24.192 167.323 24.64 168.454 24.64C169.371 24.64 170.182 24.3627 170.886 23.808C171.59 23.2533 172.422 22.4213 173.382 21.312C173.638 21.0133 173.926 20.864 174.246 20.864ZM168.646 3.136C168.326 3.136 167.963 3.54133 167.558 4.352C167.174 5.14133 166.8 6.25067 166.438 7.68C166.096 9.088 165.808 10.656 165.574 12.384C166.832 11.296 167.771 10.08 168.39 8.736C169.03 7.37067 169.35 6.13333 169.35 5.024C169.35 3.76533 169.115 3.136 168.646 3.136ZM176.728 10.976C175.832 10.976 175.16 10.7733 174.712 10.368C174.264 9.94133 174.04 9.35467 174.04 8.608C174.04 7.86133 174.328 7.24267 174.904 6.752C175.501 6.24 176.237 5.984 177.112 5.984C177.901 5.984 178.541 6.176 179.032 6.56C179.523 6.944 179.768 7.488 179.768 8.192C179.768 9.04533 179.491 9.728 178.936 10.24C178.381 10.7307 177.645 10.976 176.728 10.976ZM176.472 28.16C175.085 28.16 174.072 27.6693 173.432 26.688C172.813 25.7067 172.504 24.4053 172.504 22.784C172.504 21.824 172.621 20.5973 172.856 19.104C173.112 17.5893 173.432 16.1813 173.816 14.88C174.008 14.1973 174.264 13.728 174.584 13.472C174.904 13.216 175.416 13.088 176.12 13.088C177.208 13.088 177.752 13.4507 177.752 14.176C177.752 14.7093 177.549 15.9467 177.144 17.888C176.632 20.2347 176.376 21.824 176.376 22.656C176.376 23.296 176.461 23.7867 176.632 24.128C176.803 24.4693 177.091 24.64 177.496 24.64C177.88 24.64 178.36 24.3733 178.936 23.84C179.512 23.3067 180.28 22.464 181.24 21.312C181.496 21.0133 181.784 20.864 182.104 20.864C182.381 20.864 182.595 20.992 182.744 21.248C182.915 21.504 183 21.856 183 22.304C183 23.1573 182.797 23.8187 182.392 24.288C180.28 26.8693 178.307 28.16 176.472 28.16ZM196.731 18.176C197.008 18.176 197.222 18.3147 197.371 18.592C197.52 18.8693 197.595 19.2213 197.595 19.648C197.595 20.672 197.286 21.28 196.667 21.472C195.387 21.92 193.979 22.176 192.443 22.24C192.038 24.032 191.238 25.472 190.043 26.56C188.848 27.6267 187.494 28.16 185.979 28.16C184.699 28.16 183.6 27.8507 182.683 27.232C181.787 26.6133 181.104 25.792 180.635 24.768C180.166 23.744 179.931 22.6347 179.931 21.44C179.931 19.8187 180.24 18.3787 180.859 17.12C181.478 15.84 182.331 14.848 183.419 14.144C184.507 13.4187 185.712 13.056 187.035 13.056C188.656 13.056 189.958 13.6213 190.939 14.752C191.942 15.8613 192.528 17.2373 192.699 18.88C193.702 18.816 194.896 18.6027 196.283 18.24C196.454 18.1973 196.603 18.176 196.731 18.176ZM186.235 24.768C186.918 24.768 187.504 24.4907 187.995 23.936C188.507 23.3813 188.848 22.5813 189.019 21.536C188.358 21.088 187.846 20.5013 187.483 19.776C187.142 19.0507 186.971 18.2827 186.971 17.472C186.971 17.1307 187.003 16.7893 187.067 16.448H186.907C186.054 16.448 185.339 16.864 184.763 17.696C184.208 18.5067 183.931 19.6587 183.931 21.152C183.931 22.3253 184.155 23.2213 184.603 23.84C185.072 24.4587 185.616 24.768 186.235 24.768ZM197.121 28.16C196.31 28.16 195.734 27.7333 195.393 26.88C195.073 26.0267 194.913 24.6613 194.913 22.784C194.913 20.0107 195.307 17.376 196.097 14.88C196.289 14.2613 196.598 13.8133 197.025 13.536C197.473 13.2373 198.091 13.088 198.881 13.088C199.307 13.088 199.606 13.1413 199.777 13.248C199.947 13.3547 200.033 13.5573 200.033 13.856C200.033 14.1973 199.873 14.9653 199.553 16.16C199.339 17.0133 199.169 17.76 199.041 18.4C198.913 19.04 198.806 19.8293 198.721 20.768C199.425 18.9333 200.214 17.44 201.089 16.288C201.963 15.136 202.817 14.3147 203.649 13.824C204.502 13.3333 205.281 13.088 205.985 13.088C206.667 13.088 207.179 13.2693 207.521 13.632C207.883 13.9733 208.065 14.4853 208.065 15.168C208.065 15.7227 207.947 16.768 207.713 18.304C207.499 19.6053 207.329 20.8427 207.201 22.016C207.073 23.168 207.009 24.4587 207.009 25.888C207.009 26.6987 206.838 27.2853 206.497 27.648C206.177 27.9893 205.643 28.16 204.897 28.16C204.193 28.16 203.681 27.9787 203.361 27.616C203.041 27.2533 202.881 26.7093 202.881 25.984C202.881 25.1307 203.03 23.7227 203.329 21.76C203.585 20.0533 203.713 18.9653 203.713 18.496C203.713 18.1547 203.595 17.984 203.361 17.984C203.083 17.984 202.689 18.3467 202.177 19.072C201.686 19.776 201.174 20.7147 200.641 21.888C200.129 23.0613 199.713 24.2987 199.393 25.6C199.158 26.6027 198.881 27.2853 198.561 27.648C198.262 27.9893 197.782 28.16 197.121 28.16Z" fill="#D93D04"/>
</svg>
