<svg width="271" height="92" viewBox="0 0 271 92" fill="none" xmlns="http://www.w3.org/2000/svg">
<path d="M115.528 49.528C117 49.528 118.056 49.848 118.696 50.488C119.4 51.128 119.752 51.96 119.752 52.984C119.752 54.648 119.24 56.12 118.216 57.4C117.256 58.68 115.72 59.352 113.608 59.416C108.552 59.48 104.008 59.096 99.976 58.264C95.496 67.8 90.088 75.736 83.752 82.072C77.48 88.344 71.272 91.48 65.128 91.48C59.496 91.48 55.272 88.504 52.456 82.552C49.64 76.536 48.04 68.504 47.656 58.456C43.816 69.592 39.464 77.88 34.6 83.32C29.8 88.76 24.68 91.48 19.24 91.48C13.096 91.48 8.456 87.672 5.32 80.056C2.184 72.376 0.616001 62.072 0.616001 49.144C0.616001 39.736 1.448 29.4 3.112 18.136C3.56 14.936 4.36 12.728 5.512 11.512C6.728 10.232 8.616 9.592 11.176 9.592C13.096 9.592 14.568 10.008 15.592 10.84C16.68 11.672 17.224 13.208 17.224 15.448C17.224 15.896 17.16 16.76 17.032 18.04C15.112 31.16 14.152 42.328 14.152 51.544C14.152 60.12 14.888 66.744 16.36 71.416C17.832 76.088 19.816 78.424 22.312 78.424C24.552 78.424 27.24 76.088 30.376 71.416C33.576 66.68 36.744 59.704 39.88 50.488C43.016 41.208 45.672 30.168 47.848 17.368C48.36 14.424 49.288 12.408 50.632 11.32C52.04 10.168 53.928 9.592 56.296 9.592C58.28 9.592 59.72 10.04 60.616 10.936C61.576 11.768 62.056 13.048 62.056 14.776C62.056 15.8 61.992 16.6 61.864 17.176C60.072 27.608 59.176 38.04 59.176 48.472C59.176 55.576 59.4 61.24 59.848 65.464C60.36 69.688 61.288 72.92 62.632 75.16C64.04 77.336 66.056 78.424 68.68 78.424C71.752 78.424 75.176 76.12 78.952 71.512C82.728 66.84 86.184 61.048 89.32 54.136C85.416 51.704 82.472 48.568 80.488 44.728C78.504 40.824 77.512 36.344 77.512 31.288C77.512 26.232 78.28 21.976 79.816 18.52C81.416 15 83.56 12.376 86.248 10.648C89 8.92 92.04 8.056 95.368 8.056C99.464 8.056 102.696 9.528 105.064 12.472C107.496 15.416 108.712 19.448 108.712 24.568C108.712 31.8 107.144 39.832 104.008 48.664C107.272 49.24 111.112 49.528 115.528 49.528ZM87.208 30.616C87.208 36.888 89.224 41.528 93.256 44.536C95.752 37.368 97 31.448 97 26.776C97 24.088 96.648 22.136 95.944 20.92C95.24 19.64 94.28 19 93.064 19C91.336 19 89.928 20.024 88.84 22.072C87.752 24.056 87.208 26.904 87.208 30.616ZM118.385 91.48C114.417 91.48 111.249 90.04 108.881 87.16C106.513 84.28 105.329 80.504 105.329 75.832C105.329 70.712 106.513 65.88 108.881 61.336C111.249 56.728 114.385 53.048 118.289 50.296C122.257 47.48 126.449 46.072 130.865 46.072C132.273 46.072 133.201 46.36 133.649 46.936C134.161 47.448 134.577 48.408 134.897 49.816C136.241 49.56 137.649 49.432 139.121 49.432C142.257 49.432 143.825 50.552 143.825 52.792C143.825 54.136 143.345 57.336 142.385 62.392C140.913 69.752 140.177 74.872 140.177 77.752C140.177 78.712 140.401 79.48 140.849 80.056C141.361 80.632 142.001 80.92 142.769 80.92C143.985 80.92 145.457 80.152 147.185 78.616C148.913 77.016 151.249 74.456 154.193 70.936C154.961 70.04 155.825 69.592 156.785 69.592C157.617 69.592 158.257 69.976 158.705 70.744C159.217 71.512 159.473 72.568 159.473 73.912C159.473 76.472 158.865 78.456 157.649 79.864C155.025 83.128 152.241 85.88 149.297 88.12C146.353 90.36 143.505 91.48 140.753 91.48C138.641 91.48 136.689 90.776 134.897 89.368C133.169 87.896 131.857 85.912 130.961 83.416C127.633 88.792 123.441 91.48 118.385 91.48ZM121.841 81.784C123.249 81.784 124.593 80.952 125.873 79.288C127.153 77.624 128.081 75.416 128.657 72.664L132.209 55C129.521 55.064 127.025 56.088 124.721 58.072C122.481 59.992 120.689 62.552 119.345 65.752C118.001 68.952 117.329 72.344 117.329 75.928C117.329 77.912 117.713 79.384 118.481 80.344C119.313 81.304 120.433 81.784 121.841 81.784ZM188.055 69.592C188.887 69.592 189.527 69.976 189.975 70.744C190.487 71.512 190.743 72.568 190.743 73.912C190.743 76.472 190.135 78.456 188.919 79.864C186.167 83.256 183.159 86.04 179.895 88.216C176.695 90.392 173.047 91.48 168.951 91.48C163.319 91.48 159.127 88.92 156.375 83.8C153.687 78.68 152.343 72.056 152.343 63.928C152.343 56.12 153.335 47.224 155.319 37.24C157.367 27.256 160.343 18.68 164.247 11.512C168.215 4.34399 172.919 0.759995 178.359 0.759995C181.431 0.759995 183.831 2.2 185.559 5.08C187.351 7.896 188.247 11.96 188.247 17.272C188.247 24.888 186.135 33.72 181.911 43.768C177.687 53.816 171.959 63.768 164.727 73.624C165.175 76.248 165.911 78.136 166.935 79.288C167.959 80.376 169.303 80.92 170.967 80.92C173.591 80.92 175.895 80.184 177.879 78.712C179.863 77.176 182.391 74.584 185.463 70.936C186.231 70.04 187.095 69.592 188.055 69.592ZM176.247 10.264C174.775 10.264 173.111 12.92 171.255 18.232C169.399 23.544 167.767 30.136 166.359 38.008C164.951 45.88 164.183 53.432 164.055 60.664C168.599 53.176 172.215 45.688 174.903 38.2C177.591 30.648 178.935 23.768 178.935 17.56C178.935 12.696 178.039 10.264 176.247 10.264ZM195.559 39.928C192.871 39.928 190.855 39.32 189.511 38.104C188.167 36.824 187.495 35.064 187.495 32.824C187.495 30.584 188.359 28.728 190.087 27.256C191.879 25.72 194.087 24.952 196.711 24.952C199.079 24.952 200.999 25.528 202.471 26.68C203.943 27.832 204.679 29.464 204.679 31.576C204.679 34.136 203.847 36.184 202.183 37.72C200.519 39.192 198.311 39.928 195.559 39.928ZM194.791 91.48C190.631 91.48 187.591 90.008 185.671 87.064C183.815 84.12 182.887 80.216 182.887 75.352C182.887 72.472 183.239 68.792 183.943 64.312C184.711 59.768 185.671 55.544 186.823 51.64C187.399 49.592 188.167 48.184 189.127 47.416C190.087 46.648 191.623 46.264 193.735 46.264C196.999 46.264 198.631 47.352 198.631 49.528C198.631 51.128 198.023 54.84 196.807 60.664C195.271 67.704 194.503 72.472 194.503 74.968C194.503 76.888 194.759 78.36 195.271 79.384C195.783 80.408 196.647 80.92 197.863 80.92C199.015 80.92 200.455 80.12 202.183 78.52C203.911 76.92 206.215 74.392 209.095 70.936C209.863 70.04 210.727 69.592 211.687 69.592C212.519 69.592 213.159 69.976 213.607 70.744C214.119 71.512 214.375 72.568 214.375 73.912C214.375 76.472 213.767 78.456 212.551 79.864C206.215 87.608 200.295 91.48 194.791 91.48ZM213.424 91.48C210.992 91.48 209.264 90.2 208.24 87.64C207.28 85.08 206.8 80.984 206.8 75.352C206.8 67.032 207.984 59.128 210.352 51.64C210.928 49.784 211.856 48.44 213.136 47.608C214.48 46.712 216.336 46.264 218.704 46.264C219.984 46.264 220.88 46.424 221.392 46.744C221.904 47.064 222.16 47.672 222.16 48.568C222.16 49.592 221.68 51.896 220.72 55.48C220.08 58.04 219.568 60.28 219.184 62.2C218.8 64.056 218.48 66.392 218.224 69.208C219.952 64.216 222 59.992 224.368 56.536C226.8 53.08 229.264 50.52 231.76 48.856C234.32 47.128 236.72 46.264 238.96 46.264C241.2 46.264 242.768 46.776 243.664 47.8C244.624 48.824 245.104 50.392 245.104 52.504C245.104 54.552 244.496 58.264 243.28 63.64C242.768 65.944 242.416 67.672 242.224 68.824C244.336 63.448 246.672 59.064 249.232 55.672C251.856 52.28 254.416 49.88 256.912 48.472C259.408 47 261.712 46.264 263.824 46.264C265.872 46.264 267.408 46.808 268.432 47.896C269.52 48.92 270.064 50.456 270.064 52.504C270.064 54.168 269.712 57.304 269.008 61.912C268.368 65.816 267.856 69.528 267.472 73.048C267.088 76.504 266.896 80.376 266.896 84.664C266.896 87.096 266.384 88.856 265.36 89.944C264.4 90.968 262.8 91.48 260.56 91.48C258.448 91.48 256.912 90.936 255.952 89.848C254.992 88.76 254.512 87.128 254.512 84.952C254.512 82.392 254.96 78.168 255.856 72.28C256.624 67.16 257.008 63.896 257.008 62.488C257.008 61.464 256.656 60.952 255.952 60.952C255.12 60.952 253.936 62.04 252.4 64.216C250.864 66.328 249.328 69.144 247.792 72.664C246.256 76.184 245.008 79.896 244.048 83.8C243.344 86.872 242.512 88.92 241.552 89.944C240.656 90.968 239.184 91.48 237.136 91.48C235.024 91.48 233.424 90.488 232.336 88.504C231.312 86.456 230.8 83.992 230.8 81.112C230.8 78.68 231.12 75.16 231.76 70.552C232.272 66.456 232.528 63.768 232.528 62.488C232.528 61.464 232.176 60.952 231.472 60.952C230.512 60.952 229.296 62.104 227.824 64.408C226.352 66.712 224.912 69.656 223.504 73.24C222.16 76.824 221.072 80.344 220.24 83.8C219.536 86.808 218.704 88.856 217.744 89.944C216.848 90.968 215.408 91.48 213.424 91.48Z" fill="#D93D04"/>
</svg>
